<?xml version="1.0" standalone="no"?>
<!DOCTYPE svg PUBLIC "-//W3C//DTD SVG 20010904//EN"
 "http://www.w3.org/TR/2001/REC-SVG-20010904/DTD/svg10.dtd">
<svg version="1.0" xmlns="http://www.w3.org/2000/svg"
 width="700.000000pt" height="700.000000pt" viewBox="0 0 700.000000 700.000000"
 preserveAspectRatio="xMidYMid meet">
<metadata>
Created by potrace 1.11, written by Peter Selinger 2001-2013
</metadata>
<g transform="translate(0.000000,700.000000) scale(0.100000,-0.100000)"
fill="#000000" stroke="none">
<path d="M3307 6994 c-3 -3 -140 -14 -184 -15 -18 -1 -31 -4 -29 -8 2 -3 -17
-5 -42 -5 -26 1 -51 -1 -56 -4 -6 -3 -24 -7 -40 -8 -17 -1 -44 -5 -61 -9 -16
-3 -41 -8 -55 -10 -14 -2 -44 -7 -67 -11 -24 -4 -43 -9 -43 -13 0 -3 -16 -7
-36 -8 -20 -1 -41 -6 -47 -12 -5 -5 -16 -7 -25 -4 -8 4 -13 2 -10 -3 4 -5 -6
-10 -20 -11 -43 -3 -122 -26 -122 -35 0 -5 -4 -7 -9 -3 -5 3 -12 1 -15 -4 -3
-5 -15 -7 -25 -4 -10 3 -22 0 -25 -6 -4 -6 -16 -11 -27 -11 -10 0 -19 -5 -19
-11 0 -5 -4 -8 -9 -5 -14 9 -70 -14 -67 -27 1 -7 1 -9 -1 -4 -3 4 -11 7 -19 7
-9 0 -13 -4 -9 -9 3 -5 0 -13 -6 -17 -8 -4 -9 -3 -5 4 11 18 -19 15 -34 -3 -7
-8 -16 -12 -22 -9 -5 3 -14 1 -21 -4 -7 -5 -24 -12 -39 -16 -16 -3 -28 -11
-28 -16 0 -6 -7 -10 -15 -10 -9 0 -30 -8 -48 -17 -18 -9 -35 -16 -39 -15 -5 1
-8 -3 -8 -8 0 -5 -3 -10 -7 -9 -23 3 -54 -15 -48 -29 4 -12 3 -13 -10 -2 -10
8 -15 9 -15 1 0 -6 -3 -10 -7 -9 -9 3 -119 -58 -147 -81 -15 -12 -17 -12 -11
-2 5 8 -7 3 -26 -11 -19 -14 -53 -36 -76 -48 -24 -13 -43 -29 -43 -37 0 -7 -6
-10 -13 -7 -7 2 -22 -5 -34 -16 -12 -11 -25 -20 -29 -20 -4 0 -25 -15 -48 -33
-23 -18 -61 -47 -86 -64 -25 -17 -59 -44 -77 -60 -18 -15 -41 -35 -51 -43 -86
-69 -106 -91 -92 -101 12 -9 12 -10 -4 -5 -21 7 -92 -49 -76 -59 6 -3 10 -12
10 -18 0 -7 -4 -6 -10 3 -9 13 -12 13 -24 -2 -7 -10 -19 -18 -25 -18 -7 0 -9
-4 -6 -10 3 -5 1 -10 -5 -10 -6 0 -8 -5 -4 -12 4 -7 3 -8 -4 -4 -7 4 -25 -9
-44 -30 -18 -21 -43 -47 -56 -58 -12 -11 -20 -26 -17 -34 2 -7 1 -11 -4 -8
-13 8 -74 -61 -66 -75 5 -7 4 -10 -3 -5 -6 3 -23 -10 -39 -31 -15 -21 -36 -47
-46 -58 -10 -10 -15 -25 -13 -32 3 -7 -1 -10 -10 -6 -8 3 -14 -1 -14 -11 0 -9
-3 -16 -7 -16 -5 0 -24 -24 -43 -53 -19 -28 -39 -55 -45 -59 -7 -5 -7 -8 0 -8
6 0 6 -3 0 -8 -22 -14 -56 -72 -50 -82 4 -6 1 -9 -7 -8 -7 2 -12 -5 -12 -14 1
-10 -2 -16 -6 -13 -12 7 -51 -64 -44 -78 4 -7 3 -9 -1 -4 -11 10 -107 -162
-98 -177 3 -6 3 -8 -2 -4 -10 10 -37 -42 -31 -59 3 -7 0 -12 -7 -10 -7 1 -11
-4 -10 -10 2 -7 -2 -13 -7 -13 -5 0 -9 -3 -8 -7 0 -5 -9 -29 -21 -56 -12 -26
-19 -52 -15 -59 4 -7 3 -8 -4 -4 -16 10 -15 -16 1 -34 10 -12 9 -12 -4 -2 -15
11 -20 3 -44 -60 -15 -40 -28 -80 -29 -90 -1 -9 -7 -22 -13 -30 -6 -7 -9 -26
-7 -43 2 -20 0 -25 -6 -16 -6 11 -12 2 -20 -30 -7 -24 -13 -54 -14 -66 0 -11
-4 -19 -8 -16 -5 2 -8 -3 -8 -12 0 -10 5 -14 13 -10 6 4 4 0 -7 -9 -10 -8 -15
-20 -11 -26 4 -7 2 -16 -5 -20 -6 -4 -12 -28 -13 -53 -1 -25 -5 -43 -9 -40 -7
4 -12 -21 -11 -54 1 -7 -4 -13 -9 -13 -6 0 -4 -8 3 -17 8 -9 9 -14 2 -10 -14
9 -34 -94 -20 -104 5 -4 3 -9 -4 -11 -7 -2 -13 -22 -15 -44 -1 -21 -3 -39 -4
-39 -3 0 -8 -37 -15 -103 -3 -37 -8 -79 -10 -94 -2 -17 2 -28 8 -28 9 0 9 -3
0 -8 -18 -12 -23 -208 -5 -204 8 1 11 -2 7 -8 -3 -6 -10 -8 -15 -5 -6 4 -9
-38 -7 -99 1 -66 6 -102 12 -99 6 3 5 0 -1 -6 -14 -15 -7 -51 10 -51 6 0 3 -5
-7 -11 -9 -6 -15 -14 -12 -19 3 -6 8 -42 11 -82 3 -40 11 -76 17 -80 8 -5 8
-8 1 -8 -7 0 -8 -17 -3 -52 4 -29 8 -61 8 -71 1 -12 6 -16 13 -11 10 5 10 4 2
-5 -12 -13 13 -173 28 -179 4 -2 6 -8 3 -12 -7 -11 26 -150 35 -150 4 0 6 -10
5 -23 -1 -12 5 -42 12 -67 8 -25 17 -52 19 -60 3 -8 5 -16 5 -17 -1 -2 5 -20
13 -40 15 -41 28 -78 27 -78 -1 0 8 -25 18 -55 15 -42 24 -54 38 -52 10 2 14
0 8 -5 -14 -11 -13 -20 8 -76 11 -28 23 -44 29 -41 7 5 8 2 3 -5 -8 -14 23
-91 37 -91 4 0 7 -3 7 -7 -3 -21 2 -33 13 -27 6 4 8 3 4 -4 -9 -14 25 -83 37
-75 6 3 7 1 3 -5 -7 -12 23 -82 36 -82 4 0 8 -9 8 -20 0 -11 5 -20 10 -20 6 0
10 -7 10 -15 0 -8 5 -15 11 -15 5 0 8 -4 4 -9 -3 -5 -1 -12 5 -16 5 -3 17 -21
26 -40 9 -19 19 -33 23 -30 4 2 8 -2 8 -8 0 -20 114 -187 123 -182 5 3 12 0
16 -6 4 -8 3 -9 -4 -5 -20 12 -13 -9 8 -24 11 -8 20 -20 20 -27 0 -7 5 -13 10
-13 6 0 10 -4 10 -10 0 -10 27 -45 67 -87 13 -13 23 -26 23 -29 0 -13 55 -62
63 -57 6 3 7 1 3 -6 -4 -7 13 -31 42 -61 28 -28 47 -50 44 -50 -4 0 5 -8 18
-17 14 -10 29 -17 33 -15 5 1 6 -2 3 -6 -7 -12 28 -44 38 -35 4 5 6 4 4 -2 -4
-15 53 -75 65 -68 6 3 7 2 4 -4 -4 -5 5 -20 18 -31 14 -12 25 -20 25 -18 0 2
21 -16 47 -41 26 -24 53 -41 60 -39 6 3 10 0 7 -7 -2 -7 12 -23 32 -36 19 -13
49 -37 67 -53 18 -15 39 -25 47 -22 8 3 11 2 8 -2 -4 -3 -1 -13 7 -20 17 -17
29 -18 19 -2 -4 7 -3 8 5 4 6 -4 9 -11 6 -16 -7 -11 32 -33 45 -25 6 3 7 -1 4
-9 -3 -9 -2 -16 4 -16 5 0 33 -16 61 -35 28 -19 55 -35 60 -35 5 0 11 -4 13
-9 2 -5 9 -11 17 -13 8 -2 23 -11 33 -21 11 -10 26 -16 34 -13 10 4 12 2 8 -6
-5 -8 -2 -9 10 -5 10 4 15 3 11 -3 -3 -5 8 -16 25 -25 16 -8 30 -12 30 -8 0 5
4 2 8 -4 12 -19 123 -73 135 -66 6 3 7 2 4 -3 -3 -6 7 -15 24 -21 22 -9 28 -8
23 0 -4 7 3 2 15 -10 12 -13 27 -23 34 -23 7 0 25 -7 40 -15 15 -8 36 -16 45
-17 9 -2 20 -7 23 -11 4 -5 18 -10 33 -10 14 -1 26 -5 26 -9 0 -6 26 -18 53
-24 4 -1 9 -3 12 -4 3 -1 8 -3 13 -4 4 -1 12 -4 17 -8 27 -16 177 -57 191 -51
12 4 15 3 10 -5 -7 -11 16 -16 61 -15 7 1 11 -3 8 -7 -4 -7 21 -13 96 -24 14
-2 36 -9 49 -16 18 -10 21 -10 14 2 -6 10 -5 11 7 1 8 -6 32 -14 54 -17 22 -3
59 -10 82 -14 24 -5 53 -9 65 -8 13 1 26 -3 31 -9 4 -6 10 -5 16 4 6 9 10 10
13 1 2 -7 30 -12 76 -13 39 -1 72 -4 72 -7 0 -3 28 -7 63 -9 34 -2 76 -4 92
-5 17 -1 33 3 37 8 5 7 8 7 8 -1 0 -7 7 -13 16 -13 9 0 12 5 8 12 -5 8 -3 8 7
2 21 -13 209 -13 202 0 -3 6 0 5 8 -1 16 -16 33 -17 23 -2 -4 8 -1 8 13 1 11
-6 28 -9 39 -7 32 7 117 16 153 15 28 -1 32 2 23 13 -9 10 -8 14 3 14 7 0 13
-5 12 -11 -3 -16 26 -14 47 3 11 9 16 10 12 4 -9 -17 6 -17 23 0 11 10 12 9 6
-2 -5 -9 -4 -12 3 -7 6 3 31 9 56 12 96 11 131 20 128 34 -2 10 0 11 11 2 10
-9 28 -9 70 0 31 7 57 16 57 21 0 4 4 6 8 3 11 -7 102 14 102 24 0 4 10 6 22
2 16 -4 19 -2 13 8 -5 8 -4 11 3 6 19 -12 64 5 57 22 -4 12 -3 12 9 3 11 -9
26 -8 68 5 29 10 55 20 58 23 3 3 14 7 25 9 33 5 155 53 168 66 7 7 18 11 26
8 10 -3 12 0 7 13 -5 15 -4 16 8 6 16 -13 56 1 56 19 0 5 6 7 14 4 7 -3 22 3
31 13 10 10 19 16 19 14 1 -2 11 -1 24 3 20 7 21 10 10 24 -11 15 -11 15 4 4
14 -11 26 -8 78 18 33 17 58 35 55 39 -3 5 3 7 13 4 10 -2 24 3 31 11 8 9 19
16 25 16 7 0 22 9 34 20 12 12 22 18 22 15 0 -2 23 9 50 26 28 17 50 35 50 40
0 6 5 7 10 4 6 -3 10 -1 10 5 0 6 3 9 8 6 4 -2 42 21 84 52 41 31 88 66 103
77 15 11 32 25 39 30 6 6 26 21 44 34 17 12 32 29 32 37 0 8 5 12 11 9 6 -4
19 2 30 14 11 12 24 21 30 21 6 0 7 5 4 10 -3 6 -2 10 4 10 17 0 91 73 84 83
-3 6 -2 7 4 4 10 -6 177 161 273 273 53 62 180 228 180 235 0 3 9 16 20 28 11
12 18 27 15 35 -2 7 -1 10 4 7 16 -9 23 15 10 33 -11 14 -11 15 1 5 11 -10 17
-8 31 9 10 11 21 29 24 39 4 11 11 19 16 19 5 0 9 4 9 9 0 5 19 42 43 83 23
40 56 100 72 133 17 33 36 66 43 73 6 7 12 16 12 18 0 3 -6 2 -12 -1 -7 -4 -6
-1 3 7 9 7 16 17 17 21 0 4 13 32 27 63 14 30 23 60 19 66 -4 6 -3 8 3 5 6 -4
16 6 22 23 5 17 7 30 3 30 -4 0 -1 4 6 9 8 5 15 20 15 34 1 14 5 23 8 21 5 -3
33 69 34 86 0 3 4 10 8 17 4 6 1 14 -5 16 -8 3 -5 6 6 6 11 1 16 6 13 15 -3 7
-2 17 3 22 12 12 53 154 52 182 0 12 4 22 8 22 4 0 13 30 20 68 7 37 17 75 22
86 8 14 7 17 -4 10 -10 -6 -11 -5 -2 7 6 8 14 32 18 54 15 84 19 111 20 135 1
14 6 28 11 32 6 5 4 8 -5 8 -10 0 -11 3 -4 8 7 4 15 39 18 77 4 39 9 86 11
105 8 74 8 137 0 150 -5 8 -4 11 3 6 13 -7 14 386 2 474 -4 30 -13 100 -20
155 -7 55 -14 109 -16 120 -14 74 -18 89 -33 154 -5 25 -8 49 -5 53 3 4 2 8
-3 8 -6 0 -27 74 -49 175 -2 6 -12 34 -22 63 -11 28 -18 52 -16 52 3 0 -2 13
-11 30 -8 16 -15 32 -14 35 1 7 -37 105 -62 161 -11 22 -19 43 -19 47 0 4 -13
34 -29 66 -16 33 -27 62 -25 64 3 2 -2 10 -11 17 -8 7 -15 21 -15 30 0 10 -3
20 -7 22 -5 2 -18 23 -30 48 -24 47 -66 122 -121 211 -47 79 -56 93 -63 99 -3
3 -15 22 -28 43 -13 21 -28 43 -35 50 -6 6 -23 28 -36 47 -13 19 -35 46 -47
60 -13 14 -23 28 -23 31 0 4 -12 21 -27 37 -16 17 -44 49 -63 73 -78 93 -190
209 -289 299 -46 41 -91 82 -100 90 -9 8 -39 33 -66 55 -28 22 -51 43 -53 47
-2 5 -10 8 -18 8 -8 0 -14 3 -14 8 -1 4 -23 23 -51 42 -28 19 -59 43 -71 52
-11 10 -29 20 -39 23 -11 4 -19 10 -19 14 0 4 -18 16 -40 26 -22 10 -40 22
-40 27 0 4 -5 8 -11 8 -6 0 -24 9 -40 21 -38 27 -143 84 -191 105 -21 9 -38
20 -38 26 0 5 -4 7 -9 4 -5 -3 -14 1 -21 9 -7 8 -16 12 -21 9 -5 -3 -9 0 -9 5
0 6 -3 10 -7 9 -9 -1 -27 6 -118 48 -33 15 -64 28 -70 29 -5 2 -28 11 -50 20
-22 10 -42 19 -45 20 -21 5 -117 39 -125 44 -5 3 -19 7 -30 8 -18 3 -125 35
-165 50 -8 3 -26 7 -39 9 -13 2 -31 6 -40 10 -9 4 -29 8 -45 10 -17 3 -48 9
-70 16 -23 6 -50 12 -61 14 -11 1 -40 5 -65 8 -25 4 -56 9 -70 12 -13 3 -47 8
-75 10 -27 3 -63 8 -80 10 -16 3 -128 7 -247 10 -167 3 -218 1 -218 -9 0 -7
-3 -8 -8 -2 -6 8 -78 16 -85 9z m-17 -18 c0 -2 -8 -10 -17 -17 -16 -13 -17
-12 -4 4 13 16 21 21 21 13z m-80 -20 c-7 -7 -13 -7 -20 0 -6 6 -3 10 10 10
13 0 16 -4 10 -10z m37 -1 c0 -8 -4 -12 -9 -9 -5 3 -6 10 -3 15 9 13 12 11 12
-6z m-157 -59 c0 -2 -8 -10 -17 -17 -16 -13 -17 -12 -4 4 13 16 21 21 21 13z
m-355 -15 c-9 -8 -36 -10 -30 -2 2 4 11 8 20 8 8 0 13 -3 10 -6z m470 -9 c-3
-3 -11 0 -18 7 -9 10 -8 11 6 5 10 -3 15 -9 12 -12z m36 1 c13 -16 12 -17 -3
-4 -10 7 -18 15 -18 17 0 8 8 3 21 -13z m124 -2 c3 -5 2 -12 -3 -15 -5 -3 -9
1 -9 9 0 17 3 19 12 6z m-795 -15 c0 -2 -8 -10 -17 -17 -16 -13 -17 -12 -4 4
13 16 21 21 21 13z m158 -21 c-3 -3 -9 2 -12 12 -6 14 -5 15 5 6 7 -7 10 -15
7 -18z m512 11 c0 -2 -8 -10 -17 -17 -16 -13 -17 -12 -4 4 13 16 21 21 21 13z
m45 -35 c3 -5 2 -12 -3 -15 -5 -3 -9 1 -9 9 0 17 3 19 12 6z m-345 -5 c0 -2
-8 -10 -17 -17 -16 -13 -17 -12 -4 4 13 16 21 21 21 13z m320 0 c0 -2 -8 -10
-17 -17 -16 -13 -17 -12 -4 4 13 16 21 21 21 13z m141 -13 c13 -16 12 -17 -3
-4 -10 7 -18 15 -18 17 0 8 8 3 21 -13z m-1040 -40 c12 -16 12 -17 -2 -6 -9 7
-20 9 -24 5 -5 -4 -5 -1 -1 6 9 16 11 15 27 -5z m243 9 c3 -5 -1 -9 -9 -9 -8
0 -12 4 -9 9 3 4 7 8 9 8 2 0 6 -4 9 -8z m326 2 c0 -8 -19 -13 -24 -6 -3 5 1
9 9 9 8 0 15 -2 15 -3z m-319 -41 c13 -16 12 -17 -3 -4 -10 7 -18 15 -18 17 0
8 8 3 21 -13z m159 13 c0 -2 -8 -10 -17 -17 -16 -13 -17 -12 -4 4 13 16 21 21
21 13z m-514 -18 c3 -4 -1 -5 -10 -4 -8 1 -18 5 -22 8 -3 4 1 5 10 4 8 -1 18
-5 22 -8z m239 3 c-9 -8 -36 -10 -30 -2 2 4 11 8 20 8 8 0 13 -3 10 -6z m666
-8 c13 -16 12 -17 -3 -4 -10 7 -18 15 -18 17 0 8 8 3 21 -13z m-357 -11 c3 -5
-1 -9 -9 -9 -8 0 -12 4 -9 9 3 4 7 8 9 8 2 0 6 -4 9 -8z m-561 -17 c-3 -9 -8
-14 -10 -11 -3 3 -2 9 2 15 9 16 15 13 8 -4z m772 -25 c3 -6 -1 -7 -9 -4 -18
7 -21 14 -7 14 6 0 13 -4 16 -10z m-884 -17 c13 -16 12 -17 -3 -4 -10 7 -18
15 -18 17 0 8 8 3 21 -13z m1146 -1 c-16 -18 -14 -18 66 -14 45 2 84 9 86 14
2 6 7 4 13 -3 8 -12 10 -12 15 0 4 10 7 10 13 2 4 -7 47 -13 111 -16 119 -5
228 -12 279 -20 19 -3 62 -7 94 -11 33 -3 67 -9 76 -14 10 -5 20 -7 22 -4 3 2
27 0 54 -7 27 -6 60 -13 74 -15 14 -3 34 -8 45 -11 29 -10 37 -12 74 -18 19
-4 46 -12 60 -17 14 -6 35 -13 46 -15 36 -6 150 -48 153 -56 2 -4 8 -5 13 -2
5 3 19 0 31 -7 13 -7 25 -13 28 -13 6 0 61 -22 120 -48 90 -38 285 -139 292
-150 4 -7 8 -8 8 -4 0 4 20 -6 44 -23 25 -16 49 -30 55 -30 6 0 11 -4 11 -10
0 -5 5 -10 11 -10 12 0 102 -61 107 -72 2 -5 10 -8 18 -8 8 0 14 -3 14 -7 0
-5 20 -21 45 -36 25 -16 45 -33 45 -38 0 -5 6 -9 13 -9 6 0 30 -16 52 -36 22
-19 65 -56 95 -82 109 -94 322 -316 368 -384 9 -13 22 -27 29 -31 7 -4 13 -12
13 -17 0 -5 11 -21 24 -35 13 -14 51 -67 85 -118 33 -51 65 -97 71 -104 5 -7
10 -15 10 -17 0 -3 15 -29 34 -58 65 -102 236 -458 219 -458 -3 0 2 -11 11
-25 9 -13 18 -32 20 -42 1 -10 6 -25 9 -33 13 -32 36 -106 41 -132 2 -15 7
-32 11 -38 13 -21 54 -195 71 -300 2 -14 6 -36 8 -50 11 -64 24 -156 25 -170
0 -8 3 -46 6 -85 17 -233 20 -404 9 -469 l-5 -30 23 19 c23 19 23 19 -1 -7
-16 -18 -22 -34 -18 -49 3 -12 2 -31 -4 -41 -7 -13 -6 -18 3 -18 9 0 10 -3 2
-8 -6 -4 -14 -32 -18 -62 -4 -30 -10 -68 -12 -85 -3 -16 -6 -43 -9 -60 -2 -16
-10 -52 -17 -80 -7 -27 -13 -62 -13 -77 1 -15 -2 -25 -6 -23 -9 6 -21 -74 -13
-87 5 -7 2 -8 -6 -3 -10 6 -12 1 -8 -18 3 -15 1 -24 -3 -21 -5 3 -9 2 -10 -3
0 -4 -2 -15 -4 -23 -2 -8 -6 -24 -8 -35 -3 -11 -15 -44 -26 -73 -12 -30 -19
-58 -16 -63 4 -5 2 -9 -2 -9 -6 0 -37 -70 -48 -110 -1 -3 -7 -18 -13 -33 -7
-16 -9 -34 -5 -40 3 -7 3 -9 -2 -5 -7 7 -71 -106 -79 -137 -1 -5 -16 -35 -34
-65 -18 -30 -29 -62 -26 -70 3 -8 2 -11 -2 -7 -9 9 -45 -43 -38 -55 3 -4 1 -8
-4 -8 -10 0 -80 -110 -72 -113 2 -1 -8 -15 -24 -30 -18 -18 -26 -34 -21 -45 3
-9 3 -13 -1 -9 -6 6 -63 -51 -64 -64 0 -3 -16 -23 -35 -45 -19 -21 -33 -45
-30 -51 2 -7 0 -12 -4 -10 -9 2 -43 -31 -81 -82 -14 -18 -35 -43 -48 -54 -12
-12 -20 -27 -17 -35 2 -7 0 -10 -5 -7 -5 3 -24 -7 -42 -24 -29 -27 -30 -31
-17 -48 13 -16 12 -17 -3 -5 -15 12 -26 5 -95 -63 -43 -42 -79 -76 -81 -75 -1
0 -22 -16 -47 -37 -37 -30 -42 -39 -33 -52 10 -13 10 -14 -1 -4 -11 9 -19 8
-37 -4 -13 -8 -21 -20 -17 -26 4 -6 0 -8 -10 -4 -10 3 -17 2 -17 -4 0 -5 -11
-15 -25 -21 -14 -6 -25 -18 -25 -25 0 -8 -5 -11 -10 -8 -14 9 -42 -14 -33 -28
3 -5 1 -7 -5 -4 -13 9 -44 -2 -37 -13 3 -4 -6 -11 -20 -14 -14 -4 -25 -11 -25
-16 0 -6 -5 -10 -11 -10 -6 0 -30 -13 -54 -30 -24 -16 -48 -30 -53 -30 -6 0
-12 -3 -14 -7 -1 -5 -16 -16 -33 -25 -16 -10 -29 -23 -27 -29 2 -9 -1 -9 -12
1 -9 7 -16 8 -16 2 0 -5 -13 -15 -30 -20 -22 -8 -28 -15 -24 -29 4 -14 4 -15
-4 -4 -8 11 -16 10 -51 -5 -22 -10 -41 -22 -41 -28 0 -5 -3 -7 -6 -3 -4 3 -26
-5 -49 -18 -24 -13 -46 -21 -49 -18 -3 4 -6 1 -6 -6 0 -7 -4 -10 -9 -7 -5 3
-21 -4 -37 -16 -15 -13 -24 -16 -19 -9 6 11 5 12 -6 5 -14 -8 -19 -10 -39 -13
-5 0 -7 -9 -4 -18 4 -13 3 -14 -3 -5 -12 15 -46 5 -36 -12 5 -7 2 -7 -8 1 -12
10 -20 9 -37 -3 -12 -8 -22 -12 -22 -8 0 3 -7 1 -15 -6 -8 -7 -15 -9 -15 -5 0
4 -7 2 -15 -5 -8 -7 -15 -10 -15 -6 0 3 -12 1 -27 -5 -16 -6 -39 -13 -53 -16
-13 -2 -28 -10 -32 -16 -4 -7 -8 -8 -8 -3 0 5 -8 2 -17 -5 -9 -8 -14 -9 -10
-3 4 7 -2 10 -18 6 -14 -2 -25 -8 -25 -12 0 -5 -8 -7 -17 -5 -10 1 -22 0 -28
-4 -5 -3 -18 -7 -27 -8 -33 -5 -63 -12 -65 -14 -2 -1 -6 -2 -10 -3 -5 -1 -14
-5 -22 -10 -10 -7 -12 -6 -6 4 6 10 4 11 -6 4 -8 -4 -23 -9 -34 -10 -11 -1
-36 -5 -55 -9 -19 -4 -46 -8 -60 -10 -47 -6 -155 -17 -175 -19 -11 -1 -26 -6
-34 -10 -10 -7 -12 -6 -6 4 6 10 4 12 -9 7 -10 -4 -49 -7 -87 -7 -53 0 -68 -3
-63 -13 6 -9 4 -9 -7 0 -17 17 -51 17 -68 0 -11 -9 -13 -9 -7 1 9 16 -6 16
-23 -1 -9 -8 -12 -8 -7 0 8 14 -140 23 -155 8 -6 -5 -9 -5 -9 1 0 6 -22 11
-49 11 -27 1 -54 4 -60 7 -5 4 -13 1 -17 -5 -4 -7 -9 -8 -13 -1 -3 6 -35 13
-70 16 -35 3 -67 8 -69 11 -3 3 -12 -1 -20 -8 -12 -9 -14 -9 -9 0 5 8 -5 14
-30 19 -21 3 -56 10 -77 14 -22 5 -44 7 -48 4 -4 -3 -8 -1 -8 5 0 5 -11 8 -25
6 -14 -1 -25 1 -25 6 0 8 -82 25 -107 22 -7 0 -13 3 -13 7 0 7 -106 35 -127
33 -7 0 -11 3 -8 7 5 7 -83 37 -97 32 -5 -1 -8 2 -8 7 0 8 -56 25 -72 22 -5 0
-8 4 -8 10 0 6 -7 9 -15 5 -8 -3 -15 -2 -15 2 0 12 -60 34 -76 28 -8 -3 -13
-2 -9 3 6 10 -49 41 -72 41 -7 0 -13 5 -13 10 0 6 -7 10 -16 10 -8 0 -22 7
-31 15 -8 8 -19 13 -24 10 -5 -4 -9 -1 -9 5 0 6 -4 8 -10 5 -5 -3 -10 -2 -10
3 0 13 -50 33 -62 26 -6 -4 -8 -3 -5 2 5 10 -124 94 -144 94 -5 0 -9 4 -9 8 0
5 -12 15 -27 22 -16 8 -38 23 -50 34 -20 16 -25 17 -40 5 -16 -13 -17 -12 -5
3 15 19 2 31 -25 22 -13 -4 -14 -3 -5 4 10 7 4 16 -29 40 -23 17 -47 29 -53
25 -6 -3 -8 -3 -4 2 8 8 -1 17 -68 70 -21 17 -56 47 -77 67 -22 20 -44 35 -49
32 -5 -3 -7 -2 -6 3 4 11 -128 143 -143 143 -5 0 -8 4 -5 8 3 5 -5 18 -17 29
-12 10 -42 44 -67 73 -25 30 -55 65 -68 78 -12 12 -22 27 -22 32 0 4 -4 10 -8
12 -4 2 -23 24 -41 50 -19 26 -39 45 -45 41 -6 -3 -8 -3 -4 2 8 9 -22 65 -34
65 -4 0 -8 7 -8 15 0 8 -4 15 -10 15 -5 0 -10 7 -10 15 0 9 -7 18 -15 21 -8 4
-12 10 -9 15 3 5 0 9 -5 9 -6 0 -11 7 -11 15 0 9 -7 18 -15 21 -8 4 -13 10
-10 14 3 5 -2 15 -10 23 -8 9 -15 21 -15 27 0 6 -5 8 -12 4 -6 -4 -8 -3 -4 4
3 6 -7 32 -24 58 -16 26 -30 53 -30 60 0 6 -11 28 -25 48 -14 20 -28 48 -31
61 -3 14 -10 25 -16 25 -5 0 -7 4 -3 9 3 5 -2 16 -10 25 -9 8 -15 18 -14 21 3
12 -33 95 -39 91 -4 -2 -8 6 -8 17 -2 39 -46 147 -57 140 -6 -4 -7 -1 -3 6 11
18 -2 63 -16 55 -7 -4 -8 -3 -4 5 8 12 -13 111 -24 111 -3 0 -7 16 -8 37 -3
44 -10 55 -25 47 -9 -5 -9 -4 -1 5 9 10 8 27 -2 70 -12 55 -16 74 -30 139 -3
15 -10 29 -16 31 -6 2 -5 6 3 11 10 7 10 12 -2 26 -12 15 -12 16 0 9 11 -6 12
-5 5 6 -5 8 -7 22 -5 33 1 10 -1 16 -6 13 -4 -3 -8 19 -8 49 1 30 -2 54 -5 54
-3 0 -5 25 -4 55 2 33 -2 55 -8 55 -7 0 -7 5 1 13 6 8 9 16 6 19 -3 3 -6 45
-7 94 -1 68 -5 92 -17 102 -14 11 -14 11 2 6 15 -6 17 3 18 85 1 50 2 101 3
114 1 12 -5 31 -13 42 -15 18 -15 19 2 6 15 -12 17 -11 17 8 0 14 -4 20 -11
15 -6 -3 -4 4 4 17 8 13 14 41 13 62 0 20 2 37 7 37 4 0 7 5 7 11 0 5 -6 7
-13 3 -9 -6 -9 -5 0 7 6 8 14 34 18 59 4 24 9 49 12 54 4 5 1 6 -5 2 -6 -4 -5
5 3 21 11 21 12 29 2 35 -8 5 -8 8 -1 8 17 0 24 36 10 51 -8 9 -8 10 0 6 11
-6 25 36 30 83 1 8 4 22 7 30 4 12 49 161 61 205 2 6 6 17 9 25 17 39 45 130
41 130 -3 0 2 7 11 16 9 9 14 23 11 30 -3 8 -1 14 5 14 6 0 7 5 4 10 -3 6 -2
10 2 10 12 0 34 61 26 73 -3 6 -1 7 5 3 8 -5 12 0 12 13 0 12 4 21 9 21 5 0
14 14 20 32 9 24 8 34 -1 40 -9 6 -7 8 7 6 12 -2 20 3 20 12 0 8 3 17 6 20 17
13 49 83 43 92 -4 6 -3 8 3 5 12 -8 46 50 39 68 -3 10 0 12 11 8 11 -4 14 -2
9 5 -4 7 -4 12 1 12 14 0 65 89 57 101 -4 8 -3 9 4 5 11 -7 17 6 13 27 -1 5 3
6 8 3 13 -8 34 21 25 35 -4 8 -3 9 4 5 7 -4 17 3 24 18 6 14 15 26 20 26 5 0
6 10 3 23 -4 15 -3 18 3 8 8 -10 13 -8 25 10 9 12 13 27 10 33 -3 6 -3 8 2 4
11 -10 66 54 60 70 -3 7 -1 11 4 7 5 -3 29 18 53 46 23 29 94 103 156 166 62
62 110 118 107 123 -3 5 0 7 8 4 17 -6 99 65 90 79 -3 6 -1 7 6 3 15 -10 43
13 34 27 -3 6 -1 7 5 3 6 -3 26 7 44 22 18 16 68 53 111 81 42 29 77 57 77 62
0 6 4 7 10 4 5 -3 22 7 37 22 14 15 23 22 18 14 -5 -9 1 -7 19 4 14 9 24 21
21 25 -3 5 0 12 6 16 8 4 9 3 5 -4 -9 -15 -1 -15 25 -1 17 9 18 13 7 27 -12
15 -11 16 4 4 14 -12 27 -8 90 25 40 21 75 41 76 46 2 4 10 7 18 7 8 0 14 5
14 11 0 5 4 8 8 5 5 -3 33 7 63 22 30 14 59 27 64 28 6 1 30 11 55 22 45 19
110 46 120 48 3 0 13 4 22 7 10 4 26 10 35 14 10 3 20 7 23 8 3 1 12 4 20 7 8
3 36 12 62 18 26 7 45 16 42 21 -2 4 9 6 26 4 23 -3 30 0 30 13 0 15 2 15 10
2 6 -9 13 -11 18 -5 4 6 15 10 25 11 51 2 58 4 51 17 -5 8 -2 8 9 -2 9 -7 17
-9 17 -4 0 5 17 10 37 11 20 2 42 7 48 12 7 6 14 8 17 5 3 -3 29 0 59 6 30 6
74 13 99 15 24 3 48 10 52 17 6 9 8 9 8 0 0 -7 9 -10 23 -7 12 2 37 5 54 6 18
1 40 10 49 20 10 10 19 18 22 18 3 0 -2 -8 -11 -18z m-1217 3 c0 -2 -6 -8 -13
-14 -10 -8 -14 -7 -14 2 0 8 6 14 14 14 7 0 13 -1 13 -2z m267 -90 c0 -8 -4
-12 -9 -9 -5 3 -6 10 -3 15 9 13 12 11 12 -6z m323 1 c-7 -7 -13 -7 -20 0 -6
6 -3 10 10 10 13 0 16 -4 10 -10z m-482 -41 c-3 -3 -9 2 -12 12 -6 14 -5 15 5
6 7 -7 10 -15 7 -18z m-128 9 c0 -8 -19 -13 -24 -6 -3 5 1 9 9 9 8 0 15 -2 15
-3z m283 -9 c4 -8 3 -16 -1 -19 -4 -3 -9 4 -9 15 -2 23 3 25 10 4z m-237 -41
c1 -9 0 -13 -4 -10 -3 4 -7 14 -8 22 -1 9 0 13 4 10 3 -4 7 -14 8 -22z m44 22
c0 -2 -8 -10 -17 -17 -16 -13 -17 -12 -4 4 13 16 21 21 21 13z m-169 -23 c13
-16 12 -17 -3 -4 -10 7 -18 15 -18 17 0 8 8 3 21 -13z m-77 -43 c-6 -6 -10 -3
-10 10 0 13 4 16 10 10 7 -7 7 -13 0 -20z m46 16 c0 -3 -4 -8 -10 -11 -5 -3
-10 -1 -10 4 0 6 5 11 10 11 6 0 10 -2 10 -4z m34 -4 c3 -5 -1 -9 -9 -9 -8 0
-12 4 -9 9 3 4 7 8 9 8 2 0 6 -4 9 -8z m400 0 c3 -5 -1 -9 -9 -9 -8 0 -12 4
-9 9 3 4 7 8 9 8 2 0 6 -4 9 -8z m-677 -17 c0 -8 -4 -12 -9 -9 -5 3 -6 10 -3
15 9 13 12 11 12 -6z m-27 -19 c0 -2 -8 -10 -17 -17 -16 -13 -17 -12 -4 4 13
16 21 21 21 13z m105 -94 c-3 -3 -11 0 -18 7 -9 10 -8 11 6 5 10 -3 15 -9 12
-12z m36 1 c13 -16 12 -17 -3 -4 -17 13 -22 21 -14 21 2 0 10 -8 17 -17z m189
-47 c0 -3 -4 -8 -10 -11 -5 -3 -10 -1 -10 4 0 6 5 11 10 11 6 0 10 -2 10 -4z
m-509 -33 c13 -16 12 -17 -3 -4 -10 7 -18 15 -18 17 0 8 8 3 21 -13z m280 0
c13 -16 12 -17 -3 -4 -10 7 -18 15 -18 17 0 8 8 3 21 -13z m-350 -30 c13 -16
12 -17 -3 -4 -10 7 -18 15 -18 17 0 8 8 3 21 -13z m155 -3 c0 -12 -4 -16 -9
-11 -5 5 -6 14 -3 20 10 15 12 14 12 -9z m-116 0 c0 -5 -2 -10 -4 -10 -3 0 -8
5 -11 10 -3 6 -1 10 4 10 6 0 11 -4 11 -10z m34 -6 c3 -8 2 -12 -4 -9 -6 3
-10 10 -10 16 0 14 7 11 14 -7z m366 2 c-7 -7 -13 -7 -20 0 -6 6 -3 10 10 10
13 0 16 -4 10 -10z m-115 -16 c3 -6 -1 -7 -9 -4 -18 7 -21 14 -7 14 6 0 13 -4
16 -10z m-35 -14 c0 -2 -8 -10 -17 -17 -16 -13 -17 -12 -4 4 13 16 21 21 21
13z m-450 -70 c0 -2 -8 -10 -17 -17 -16 -13 -17 -12 -4 4 13 16 21 21 21 13z
m81 -13 c13 -16 12 -17 -3 -4 -10 7 -18 15 -18 17 0 8 8 3 21 -13z m339 -4 c0
-5 -4 -9 -8 -9 -5 0 -9 7 -9 15 0 8 4 12 9 9 4 -3 8 -9 8 -15z m-463 -4 c0 -8
-4 -12 -9 -9 -5 3 -6 10 -3 15 9 13 12 11 12 -6z m158 6 c3 -5 2 -12 -3 -15
-5 -3 -9 1 -9 9 0 17 3 19 12 6z m-54 -38 c13 -16 12 -17 -3 -4 -10 7 -18 15
-18 17 0 8 8 3 21 -13z m-137 -1 c2 -4 -4 -8 -14 -8 -10 0 -16 4 -14 8 3 4 9
8 14 8 5 0 11 -4 14 -8z m-48 -42 c0 -12 -4 -16 -9 -11 -5 5 -6 14 -3 20 10
15 12 14 12 -9z m321 5 c0 -8 -4 -12 -9 -9 -5 3 -6 10 -3 15 9 13 12 11 12 -6z
m118 -14 c3 -5 2 -12 -3 -15 -5 -3 -9 1 -9 9 0 17 3 19 12 6z m-471 -29 c3 -5
-1 -9 -9 -9 -8 0 -12 4 -9 9 3 4 7 8 9 8 2 0 6 -4 9 -8z m156 -26 c0 -2 -8
-10 -17 -17 -16 -13 -17 -12 -4 4 13 16 21 21 21 13z m41 -13 c13 -16 12 -17
-3 -4 -10 7 -18 15 -18 17 0 8 8 3 21 -13z m-84 -8 c0 -8 -4 -12 -9 -9 -5 3
-6 10 -3 15 9 13 12 11 12 -6z m128 -15 c-3 -5 -12 -10 -18 -10 -7 0 -6 4 3
10 19 12 23 12 15 0z m-65 -4 c0 -2 -8 -10 -17 -17 -16 -13 -17 -12 -4 4 13
16 21 21 21 13z m-290 -12 c0 -8 -19 -13 -24 -6 -3 5 1 9 9 9 8 0 15 -2 15 -3z
m101 -11 c13 -16 12 -17 -3 -4 -17 13 -22 21 -14 21 2 0 10 -8 17 -17z m284
-22 c3 -5 2 -12 -3 -15 -5 -3 -9 1 -9 9 0 17 3 19 12 6z m-345 -85 c0 -2 -8
-10 -17 -17 -16 -13 -17 -12 -4 4 13 16 21 21 21 13z m264 -4 c3 -5 -1 -9 -9
-9 -8 0 -12 4 -9 9 3 4 7 8 9 8 2 0 6 -4 9 -8z m-390 -80 c2 -4 -4 -8 -14 -8
-10 0 -16 4 -14 8 3 4 9 8 14 8 5 0 11 -4 14 -8z m267 -9 c13 -16 12 -17 -3
-4 -17 13 -22 21 -14 21 2 0 10 -8 17 -17z m-196 -81 c-3 -3 -11 0 -18 7 -9
10 -8 11 6 5 10 -3 15 -9 12 -12z m36 1 c13 -16 12 -17 -3 -4 -17 13 -22 21
-14 21 2 0 10 -8 17 -17z m-236 -22 c3 -5 2 -12 -3 -15 -5 -3 -9 1 -9 9 0 17
3 19 12 6z m46 -8 c13 -16 12 -17 -3 -4 -17 13 -22 21 -14 21 2 0 10 -8 17
-17z m113 -13 c-6 -6 -10 -3 -10 10 0 13 4 16 10 10 7 -7 7 -13 0 -20z m46 16
c0 -3 -4 -8 -10 -11 -5 -3 -10 -1 -10 4 0 6 5 11 10 11 6 0 10 -2 10 -4z m140
-20 c0 -3 -4 -8 -10 -11 -5 -3 -10 -1 -10 4 0 6 5 11 10 11 6 0 10 -2 10 -4z
m-143 -21 c0 -8 -4 -12 -9 -9 -5 3 -6 10 -3 15 9 13 12 11 12 -6z m-206 -52
c13 -16 12 -17 -3 -4 -10 7 -18 15 -18 17 0 8 8 3 21 -13z m-71 -17 c0 -2 -8
-10 -17 -17 -16 -13 -17 -12 -4 4 13 16 21 21 21 13z m200 -20 c-7 -7 -13 -7
-20 0 -6 6 -3 10 10 10 13 0 16 -4 10 -10z m-279 -73 c13 -16 12 -17 -3 -4
-17 13 -22 21 -14 21 2 0 10 -8 17 -17z m44 -3 c3 -6 -1 -7 -9 -4 -18 7 -21
14 -7 14 6 0 13 -4 16 -10z m235 -4 c-7 -7 -13 -7 -20 0 -6 6 -3 10 10 10 13
0 16 -4 10 -10z m-126 -46 c-6 -6 -10 -3 -10 10 0 13 4 16 10 10 7 -7 7 -13 0
-20z m131 10 c3 -6 -1 -7 -9 -4 -18 7 -21 14 -7 14 6 0 13 -4 16 -10z m-240
-39 c-9 -8 -36 -10 -30 -2 2 4 11 8 20 8 8 0 13 -3 10 -6z m133 -86 c-3 -3 -9
2 -12 12 -6 14 -5 15 5 6 7 -7 10 -15 7 -18z m-303 -74 c3 -5 2 -12 -3 -15 -5
-3 -9 1 -9 9 0 17 3 19 12 6z m36 -8 c13 -16 12 -17 -3 -4 -10 7 -18 15 -18
17 0 8 8 3 21 -13z m143 -31 c3 -5 -1 -9 -9 -9 -8 0 -12 4 -9 9 3 4 7 8 9 8 2
0 6 -4 9 -8z m-140 -80 c3 -5 -1 -9 -9 -9 -8 0 -12 4 -9 9 3 4 7 8 9 8 2 0 6
-4 9 -8z m-114 -6 c0 -2 -8 -10 -17 -17 -16 -13 -17 -12 -4 4 13 16 21 21 21
13z m-40 -10 c0 -3 -4 -8 -10 -11 -5 -3 -10 -1 -10 4 0 6 5 11 10 11 6 0 10
-2 10 -4z m161 -23 c13 -16 12 -17 -3 -4 -17 13 -22 21 -14 21 2 0 10 -8 17
-17z m159 13 c0 -2 -8 -10 -17 -17 -16 -13 -17 -12 -4 4 13 16 21 21 21 13z
m-150 -50 c0 -2 -8 -10 -17 -17 -16 -13 -17 -12 -4 4 13 16 21 21 21 13z
m-117 -41 c-3 -9 -8 -14 -10 -11 -3 3 -2 9 2 15 9 16 15 13 8 -4z m81 -11 c3
-8 2 -12 -4 -9 -6 3 -10 10 -10 16 0 14 7 11 14 -7z m-60 -44 c-6 -6 -10 -3
-10 10 0 13 4 16 10 10 7 -7 7 -13 0 -20z m-113 -27 c13 -16 12 -17 -3 -4 -10
7 -18 15 -18 17 0 8 8 3 21 -13z m165 -85 c3 -4 -1 -5 -10 -4 -8 1 -18 5 -22
8 -3 4 1 5 10 4 8 -1 18 -5 22 -8z m-206 -22 c0 -2 -8 -10 -17 -17 -16 -13
-17 -12 -4 4 13 16 21 21 21 13z m76 -16 c0 -12 -4 -16 -9 -11 -5 5 -6 14 -3
20 10 15 12 14 12 -9z m117 -75 c-3 -9 -8 -14 -10 -11 -3 3 -2 9 2 15 9 16 15
13 8 -4z m-32 -42 c13 -16 12 -17 -3 -4 -10 7 -18 15 -18 17 0 8 8 3 21 -13z
m-151 -77 c0 -2 -8 -10 -17 -17 -16 -13 -17 -12 -4 4 13 16 21 21 21 13z m-94
-52 c1 -9 0 -13 -4 -10 -3 4 -7 14 -8 22 -1 9 0 13 4 10 3 -4 7 -14 8 -22z
m-26 12 c0 -2 -8 -10 -17 -17 -16 -13 -17 -12 -4 4 13 16 21 21 21 13z m64 -4
c3 -5 -1 -9 -9 -9 -8 0 -12 4 -9 9 3 4 7 8 9 8 2 0 6 -4 9 -8z m43 -7 c0 -8
-4 -12 -9 -9 -5 3 -6 10 -3 15 9 13 12 11 12 -6z m173 11 c0 -2 -8 -10 -17
-17 -16 -13 -17 -12 -4 4 13 16 21 21 21 13z m-240 -120 c0 -2 -8 -10 -17 -17
-16 -13 -17 -12 -4 4 13 16 21 21 21 13z m196 -8 c3 -4 -1 -5 -10 -4 -8 1 -18
5 -22 8 -3 4 1 5 10 4 8 -1 18 -5 22 -8z m-45 -115 c13 -16 12 -17 -3 -4 -10
7 -18 15 -18 17 0 8 8 3 21 -13z m-270 -96 c-10 -9 -11 -8 -5 6 3 10 9 15 12
12 3 -3 0 -11 -7 -18z m64 -16 c3 -5 2 -12 -3 -15 -5 -3 -9 1 -9 9 0 17 3 19
12 6z m-25 -5 c0 -2 -8 -10 -17 -17 -16 -13 -17 -12 -4 4 13 16 21 21 21 13z
m-6 -44 c3 -5 -1 -9 -9 -9 -8 0 -12 4 -9 9 3 4 7 8 9 8 2 0 6 -4 9 -8z m193
-7 c0 -8 -4 -12 -9 -9 -5 3 -6 10 -3 15 9 13 12 11 12 -6z m48 -15 c3 -6 -1
-7 -9 -4 -18 7 -21 14 -7 14 6 0 13 -4 16 -10z m-40 -19 c-9 -8 -36 -10 -30
-2 2 4 11 8 20 8 8 0 13 -3 10 -6z m-14 -54 c-10 -9 -11 -8 -5 6 3 10 9 15 12
12 3 -3 0 -11 -7 -18z m-115 -67 c0 -12 -4 -16 -9 -11 -5 5 -6 14 -3 20 10 15
12 14 12 -9z m139 -69 c3 -5 2 -12 -3 -15 -5 -3 -9 1 -9 9 0 17 3 19 12 6z
m-100 -40 c3 -5 2 -12 -3 -15 -5 -3 -9 1 -9 9 0 17 3 19 12 6z m-84 -18 c13
-16 12 -17 -3 -4 -10 7 -18 15 -18 17 0 8 8 3 21 -13z m0 -80 c13 -16 12 -17
-3 -4 -10 7 -18 15 -18 17 0 8 8 3 21 -13z m-136 -32 c3 -5 2 -12 -3 -15 -5
-3 -9 1 -9 9 0 17 3 19 12 6z m146 -78 c13 -16 12 -17 -3 -4 -10 7 -18 15 -18
17 0 8 8 3 21 -13z m120 -40 c13 -16 12 -17 -3 -4 -10 7 -18 15 -18 17 0 8 8
3 21 -13z m39 -3 c0 -5 -2 -10 -4 -10 -3 0 -8 5 -11 10 -3 6 -1 10 4 10 6 0
11 -4 11 -10z m6333 -75 c-3 -9 -8 -14 -10 -11 -3 3 -2 9 2 15 9 16 15 13 8
-4z m237 1 c0 -2 -8 -10 -17 -17 -16 -13 -17 -12 -4 4 13 16 21 21 21 13z
m-214 -52 c1 -9 0 -13 -4 -10 -3 4 -7 14 -8 22 -1 9 0 13 4 10 3 -4 7 -14 8
-22z m-6436 -38 c-7 -7 -13 -7 -20 0 -6 6 -3 10 10 10 13 0 16 -4 10 -10z
m6650 10 c0 -2 -8 -10 -17 -17 -16 -13 -17 -12 -4 4 13 16 21 21 21 13z m-19
-59 c-10 -9 -11 -8 -5 6 3 10 9 15 12 12 3 -3 0 -11 -7 -18z m-6631 -1 c0 -2
-7 -7 -16 -10 -8 -3 -12 -2 -9 4 6 10 25 14 25 6z m6604 -64 c3 -5 -1 -9 -9
-9 -8 0 -12 4 -9 9 3 4 7 8 9 8 2 0 6 -4 9 -8z m-4 -26 c0 -2 -8 -10 -17 -17
-16 -13 -17 -12 -4 4 13 16 21 21 21 13z m-6686 -14 c3 -5 -1 -9 -9 -9 -8 0
-12 4 -9 9 3 4 7 8 9 8 2 0 6 -4 9 -8z m4 -47 c-3 -3 -9 2 -12 12 -6 14 -5 15
5 6 7 -7 10 -15 7 -18z m159 12 c0 -8 -6 -14 -14 -14 -9 0 -10 4 -2 14 6 7 12
13 14 13 1 0 2 -6 2 -13z m6359 -2 c-1 -8 -5 -17 -8 -21 -5 -4 -4 16 1 34 3 9
9 -1 7 -13z m39 -13 c-3 -3 -11 0 -18 7 -9 10 -8 11 6 5 10 -3 15 -9 12 -12z
m116 1 c12 -16 12 -17 -2 -6 -9 7 -20 9 -24 5 -5 -4 -5 -1 -1 6 9 16 11 15 27
-5z m84 8 c3 -5 2 -12 -3 -15 -5 -3 -9 1 -9 9 0 17 3 19 12 6z m-6760 -30 c3
-5 2 -12 -3 -15 -5 -3 -9 1 -9 9 0 17 3 19 12 6z m45 5 c0 -2 -8 -10 -17 -17
-16 -13 -17 -12 -4 4 13 16 21 21 21 13z m121 -13 c13 -16 12 -17 -3 -4 -10 7
-18 15 -18 17 0 8 8 3 21 -13z m-87 -21 c3 -5 -1 -9 -9 -9 -8 0 -12 4 -9 9 3
4 7 8 9 8 2 0 6 -4 9 -8z m6491 -42 c3 -6 -1 -7 -9 -4 -18 7 -21 14 -7 14 6 0
13 -4 16 -10z m-6364 -17 c13 -16 12 -17 -3 -4 -10 7 -18 15 -18 17 0 8 8 3
21 -13z m6289 3 c0 -2 -8 -10 -17 -17 -16 -13 -17 -12 -4 4 13 16 21 21 21 13z
m150 -10 c-7 -7 -13 -7 -20 0 -6 6 -3 10 10 10 13 0 16 -4 10 -10z m-6486 -74
c3 -5 -1 -9 -9 -9 -8 0 -12 4 -9 9 3 4 7 8 9 8 2 0 6 -4 9 -8z m37 -9 c13 -16
12 -17 -3 -4 -10 7 -18 15 -18 17 0 8 8 3 21 -13z m-155 -33 c0 -12 -4 -16 -9
-11 -5 5 -6 14 -3 20 10 15 12 14 12 -9z m6555 -47 c13 -16 12 -17 -3 -4 -10
7 -18 15 -18 17 0 8 8 3 21 -13z m19 -29 c0 -8 -19 -13 -24 -6 -3 5 1 9 9 9 8
0 15 -2 15 -3z m64 -2 c3 -5 -1 -9 -9 -9 -8 0 -12 4 -9 9 3 4 7 8 9 8 2 0 6
-4 9 -8z m-6553 -39 c13 -16 12 -17 -3 -4 -10 7 -18 15 -18 17 0 8 8 3 21 -13z
m6560 0 c13 -16 12 -17 -3 -4 -10 7 -18 15 -18 17 0 8 8 3 21 -13z m-6681 -67
c0 -2 -8 -10 -17 -17 -16 -13 -17 -12 -4 4 13 16 21 21 21 13z m120 0 c0 -2
-8 -10 -17 -17 -16 -13 -17 -12 -4 4 13 16 21 21 21 13z m6391 -23 c13 -16 12
-17 -3 -4 -10 7 -18 15 -18 17 0 8 8 3 21 -13z m-6556 -21 c-3 -3 -11 0 -18 7
-9 10 -8 11 6 5 10 -3 15 -9 12 -12z m129 -50 c2 -4 -4 -8 -14 -8 -10 0 -16 4
-14 8 3 4 9 8 14 8 5 0 11 -4 14 -8z m6590 -52 c-6 -6 -10 -3 -10 10 0 13 4
16 10 10 7 -7 7 -13 0 -20z m-6480 12 c3 -5 -1 -9 -9 -9 -8 0 -12 4 -9 9 3 4
7 8 9 8 2 0 6 -4 9 -8z m126 -22 c0 -5 -5 -10 -11 -10 -5 0 -7 5 -4 10 3 6 8
10 11 10 2 0 4 -4 4 -10z m6200 -4 c0 -2 -8 -10 -17 -17 -16 -13 -17 -12 -4 4
13 16 21 21 21 13z m-43 -21 c0 -8 -4 -12 -9 -9 -5 3 -6 10 -3 15 9 13 12 11
12 -6z m-6361 -41 c1 -9 0 -13 -4 -10 -3 4 -7 14 -8 22 -1 9 0 13 4 10 3 -4 7
-14 8 -22z m155 -41 c13 -16 12 -17 -3 -4 -10 7 -18 15 -18 17 0 8 8 3 21 -13z
m19 -29 c0 -8 -19 -13 -24 -6 -3 5 1 9 9 9 8 0 15 -2 15 -3z m6254 -2 c3 -5
-1 -9 -9 -9 -8 0 -12 4 -9 9 3 4 7 8 9 8 2 0 6 -4 9 -8z m-99 -22 c3 -6 -1 -7
-9 -4 -18 7 -21 14 -7 14 6 0 13 -4 16 -10z m-6165 -84 c0 -2 -8 -10 -17 -17
-16 -13 -17 -12 -4 4 13 16 21 21 21 13z m-163 -51 c0 -8 -4 -12 -9 -9 -5 3
-6 10 -3 15 9 13 12 11 12 -6z m314 -12 c13 -16 12 -17 -3 -4 -10 7 -18 15
-18 17 0 8 8 3 21 -13z m6093 9 c3 -5 -1 -9 -9 -9 -8 0 -12 4 -9 9 3 4 7 8 9
8 2 0 6 -4 9 -8z m-6403 -39 c13 -16 12 -17 -3 -4 -10 7 -18 15 -18 17 0 8 8
3 21 -13z m6240 0 c13 -16 12 -17 -3 -4 -17 13 -22 21 -14 21 2 0 10 -8 17
-17z m150 -50 c13 -16 12 -17 -3 -4 -10 7 -18 15 -18 17 0 8 8 3 21 -13z
m-114 -18 c0 -8 -4 -12 -9 -9 -5 3 -6 10 -3 15 9 13 12 11 12 -6z m-27 -51 c0
-8 -19 -13 -24 -6 -3 5 1 9 9 9 8 0 15 -2 15 -3z m-6169 -41 c13 -16 12 -17
-3 -4 -10 7 -18 15 -18 17 0 8 8 3 21 -13z m159 13 c0 -2 -8 -10 -17 -17 -16
-13 -17 -12 -4 4 13 16 21 21 21 13z m161 -13 c13 -16 12 -17 -3 -4 -17 13
-22 21 -14 21 2 0 10 -8 17 -17z m5840 0 c13 -16 12 -17 -3 -4 -17 13 -22 21
-14 21 2 0 10 -8 17 -17z m-6126 -2 c3 -5 2 -12 -3 -15 -5 -3 -9 1 -9 9 0 17
3 19 12 6z m6160 0 c3 -5 2 -12 -3 -15 -5 -3 -9 1 -9 9 0 17 3 19 12 6z m95 5
c0 -2 -8 -10 -17 -17 -16 -13 -17 -12 -4 4 13 16 21 21 21 13z m-294 -41 c-1
-8 -5 -17 -8 -21 -5 -4 -4 16 1 34 3 9 9 -1 7 -13z m-5845 -12 c13 -16 12 -17
-3 -4 -10 7 -18 15 -18 17 0 8 8 3 21 -13z m5884 -1 c-3 -3 -11 0 -18 7 -9 10
-8 11 6 5 10 -3 15 -9 12 -12z m45 -16 c0 -2 -8 -10 -17 -17 -16 -13 -17 -12
-4 4 13 16 21 21 21 13z m-5956 -14 c3 -5 -1 -9 -9 -9 -8 0 -12 4 -9 9 3 4 7
8 9 8 2 0 6 -4 9 -8z m5957 -79 c13 -16 12 -17 -3 -4 -17 13 -22 21 -14 21 2
0 10 -8 17 -17z m-5990 -16 c-10 -9 -11 -8 -5 6 3 10 9 15 12 12 3 -3 0 -11
-7 -18z m109 9 c-7 -7 -13 -7 -20 0 -6 6 -3 10 10 10 13 0 16 -4 10 -10z m94
-2 c3 -8 2 -12 -4 -9 -6 3 -10 10 -10 16 0 14 7 11 14 -7z m5617 -1 c13 -16
12 -17 -3 -4 -17 13 -22 21 -14 21 2 0 10 -8 17 -17z m59 13 c0 -2 -8 -10 -17
-17 -16 -13 -17 -12 -4 4 13 16 21 21 21 13z m-5689 -49 c-6 -8 -9 -16 -6 -19
3 -3 -3 -11 -12 -19 -16 -13 -17 -12 -4 4 7 9 10 17 6 17 -4 0 -2 7 5 15 7 8
15 15 17 15 3 0 0 -6 -6 -13z m-201 -11 c0 -3 -4 -8 -10 -11 -5 -3 -10 -1 -10
4 0 6 5 11 10 11 6 0 10 -2 10 -4z m40 0 c0 -2 -7 -7 -16 -10 -8 -3 -12 -2 -9
4 6 10 25 14 25 6z m36 -66 c0 -12 -4 -16 -9 -11 -5 5 -6 14 -3 20 10 15 12
14 12 -9z m5637 5 c-3 -9 -8 -14 -10 -11 -3 3 -2 9 2 15 9 16 15 13 8 -4z
m-5673 -5 c0 -5 -2 -10 -4 -10 -3 0 -8 5 -11 10 -3 6 -1 10 4 10 6 0 11 -4 11
-10z m166 -42 c3 -4 -1 -5 -10 -4 -8 1 -18 5 -22 8 -3 4 1 5 10 4 8 -1 18 -5
22 -8z m5849 2 c3 -5 1 -10 -4 -10 -6 0 -11 5 -11 10 0 6 2 10 4 10 3 0 8 -4
11 -10z m-5810 -20 c-3 -5 -12 -10 -18 -10 -7 0 -6 4 3 10 19 12 23 12 15 0z
m-49 -20 c0 -12 -4 -16 -9 -11 -5 5 -6 14 -3 20 10 15 12 14 12 -9z m-45 -13
c-10 -9 -11 -8 -5 6 3 10 9 15 12 12 3 -3 0 -11 -7 -18z m5709 17 c0 -8 -19
-13 -24 -6 -3 5 1 9 9 9 8 0 15 -2 15 -3z m35 -3 c3 -5 2 -12 -3 -15 -5 -3 -9
1 -9 9 0 17 3 19 12 6z m75 3 c0 -8 -19 -13 -24 -6 -3 5 1 9 9 9 8 0 15 -2 15
-3z m-209 -41 c13 -16 12 -17 -3 -4 -10 7 -18 15 -18 17 0 8 8 3 21 -13z m35
2 c-1 -8 -5 -17 -8 -21 -5 -4 -4 16 1 34 3 9 9 -1 7 -13z m159 6 c3 -5 2 -12
-3 -15 -5 -3 -9 1 -9 9 0 17 3 19 12 6z m45 5 c0 -2 -8 -10 -17 -17 -16 -13
-17 -12 -4 4 13 16 21 21 21 13z m-5900 -16 c0 -5 -5 -10 -11 -10 -5 0 -7 5
-4 10 3 6 8 10 11 10 2 0 4 -4 4 -10z m105 1 c-9 -8 -36 -10 -30 -2 2 4 11 8
20 8 8 0 13 -3 10 -6z m5725 5 c0 -2 -8 -10 -17 -17 -16 -13 -17 -12 -4 4 13
16 21 21 21 13z m-5616 -56 c-6 -6 -10 -3 -10 10 0 13 4 16 10 10 7 -7 7 -13
0 -20z m5610 12 c3 -5 -1 -9 -9 -9 -8 0 -12 4 -9 9 3 4 7 8 9 8 2 0 6 -4 9 -8z
m-5724 -46 c-7 -7 -13 -7 -20 0 -6 6 -3 10 10 10 13 0 16 -4 10 -10z m1 -33
c13 -16 12 -17 -3 -4 -10 7 -18 15 -18 17 0 8 8 3 21 -13z m5449 -17 c0 -2 -8
-10 -17 -17 -16 -13 -17 -12 -4 4 13 16 21 21 21 13z m-5409 -23 c13 -16 12
-17 -3 -4 -10 7 -18 15 -18 17 0 8 8 3 21 -13z m5449 3 c0 -2 -8 -10 -17 -17
-16 -13 -17 -12 -4 4 13 16 21 21 21 13z m141 -13 c13 -16 12 -17 -3 -4 -10 7
-18 15 -18 17 0 8 8 3 21 -13z m-5347 -31 c3 -5 -1 -9 -9 -9 -8 0 -12 4 -9 9
3 4 7 8 9 8 2 0 6 -4 9 -8z m5196 2 c0 -8 -19 -13 -24 -6 -3 5 1 9 9 9 8 0 15
-2 15 -3z m-5200 -28 c0 -2 -8 -10 -17 -17 -16 -13 -17 -12 -4 4 13 16 21 21
21 13z m5121 -13 c13 -16 12 -17 -3 -4 -10 7 -18 15 -18 17 0 8 8 3 21 -13z
m-5130 -50 c13 -16 12 -17 -3 -4 -17 13 -22 21 -14 21 2 0 10 -8 17 -17z
m5166 -18 c0 -8 -4 -12 -9 -9 -5 3 -6 10 -3 15 9 13 12 11 12 -6z m157 -13 c3
-5 -1 -9 -9 -9 -8 0 -12 4 -9 9 3 4 7 8 9 8 2 0 6 -4 9 -8z m-184 -38 c0 -8
-19 -13 -24 -6 -3 5 1 9 9 9 8 0 15 -2 15 -3z m-4840 -20 c0 -8 -19 -13 -24
-6 -3 5 1 9 9 9 8 0 15 -2 15 -3z m4831 -21 c13 -16 12 -17 -3 -4 -10 7 -18
15 -18 17 0 8 8 3 21 -13z m-4791 3 c0 -2 -8 -10 -17 -17 -16 -13 -17 -12 -4
4 13 16 21 21 21 13z m4640 0 c0 -2 -8 -10 -17 -17 -16 -13 -17 -12 -4 4 13
16 21 21 21 13z m27 -11 c0 -8 -4 -12 -9 -9 -5 3 -6 10 -3 15 9 13 12 11 12
-6z m158 6 c3 -5 2 -12 -3 -15 -5 -3 -9 1 -9 9 0 17 3 19 12 6z m-5242 -26
c-3 -9 -8 -14 -10 -11 -3 3 -2 9 2 15 9 16 15 13 8 -4z m378 -28 c-10 -9 -11
-8 -5 6 3 10 9 15 12 12 3 -3 0 -11 -7 -18z m4624 13 c3 -5 1 -10 -4 -10 -6 0
-11 5 -11 10 0 6 2 10 4 10 3 0 8 -4 11 -10z m45 4 c0 -8 -19 -13 -24 -6 -3 5
1 9 9 9 8 0 15 -2 15 -3z m264 -2 c3 -5 -1 -9 -9 -9 -8 0 -12 4 -9 9 3 4 7 8
9 8 2 0 6 -4 9 -8z m-5063 -39 c13 -16 12 -17 -3 -4 -10 7 -18 15 -18 17 0 8
8 3 21 -13z m36 2 c0 -8 -4 -12 -9 -9 -5 3 -6 10 -3 15 9 13 12 11 12 -6z
m133 1 c0 -2 -8 -10 -17 -17 -16 -13 -17 -12 -4 4 13 16 21 21 21 13z m4594
-4 c2 -4 -4 -8 -14 -8 -10 0 -16 4 -14 8 3 4 9 8 14 8 5 0 11 -4 14 -8z m-209
-30 c-3 -3 -11 0 -18 7 -9 10 -8 11 6 5 10 -3 15 -9 12 -12z m319 -22 c-6 -6
-10 -3 -10 10 0 13 4 16 10 10 7 -7 7 -13 0 -20z m-4710 12 c3 -5 -1 -9 -9 -9
-8 0 -12 4 -9 9 3 4 7 8 9 8 2 0 6 -4 9 -8z m110 0 c3 -5 -1 -9 -9 -9 -8 0
-12 4 -9 9 3 4 7 8 9 8 2 0 6 -4 9 -8z m4640 -8 c3 -8 2 -12 -4 -9 -6 3 -10
10 -10 16 0 14 7 11 14 -7z m-397 -19 c0 -8 -4 -12 -9 -9 -5 3 -6 10 -3 15 9
13 12 11 12 -6z m463 11 c0 -3 -4 -8 -10 -11 -5 -3 -10 -1 -10 4 0 6 5 11 10
11 6 0 10 -2 10 -4z m-4699 -23 c13 -16 12 -17 -3 -4 -17 13 -22 21 -14 21 2
0 10 -8 17 -17z m4350 -10 c13 -16 12 -17 -3 -4 -10 7 -18 15 -18 17 0 8 8 3
21 -13z m-4256 -13 c3 -5 1 -10 -4 -10 -6 0 -11 5 -11 10 0 6 2 10 4 10 3 0 8
-4 11 -10z m4421 -26 c1 -9 0 -13 -4 -10 -3 4 -7 14 -8 22 -1 9 0 13 4 10 3
-4 7 -14 8 -22z m-4856 6 c0 -5 -5 -10 -11 -10 -5 0 -7 5 -4 10 3 6 8 10 11
10 2 0 4 -4 4 -10z m34 -6 c3 -8 2 -12 -4 -9 -6 3 -10 10 -10 16 0 14 7 11 14
-7z m4511 7 c-9 -8 -36 -10 -30 -2 2 4 11 8 20 8 8 0 13 -3 10 -6z m66 -8 c13
-16 12 -17 -3 -4 -10 7 -18 15 -18 17 0 8 8 3 21 -13z m-4115 -39 c1 -9 0 -13
-4 -10 -3 4 -7 14 -8 22 -1 9 0 13 4 10 3 -4 7 -14 8 -22z m4284 22 c0 -2 -8
-10 -17 -17 -16 -13 -17 -12 -4 4 13 16 21 21 21 13z m-4745 -16 c3 -5 1 -10
-4 -10 -6 0 -11 5 -11 10 0 6 2 10 4 10 3 0 8 -4 11 -10z m261 -40 c0 -12 -4
-16 -9 -11 -5 5 -6 14 -3 20 10 15 12 14 12 -9z m-116 -44 c-7 -7 -13 -7 -20
0 -6 6 -3 10 10 10 13 0 16 -4 10 -10z m4191 -3 c13 -16 12 -17 -3 -4 -10 7
-18 15 -18 17 0 8 8 3 21 -13z m289 3 c-7 -7 -13 -7 -20 0 -6 6 -3 10 10 10
13 0 16 -4 10 -10z m-4476 -36 c3 -3 -5 -6 -19 -5 -13 0 -26 2 -29 5 -3 3 5 6
19 5 13 0 26 -2 29 -5z m471 -29 c3 -5 2 -12 -3 -15 -5 -3 -9 1 -9 9 0 17 3
19 12 6z m45 5 c0 -2 -8 -10 -17 -17 -16 -13 -17 -12 -4 4 13 16 21 21 21 13z
m3564 -14 c3 -5 -1 -9 -9 -9 -8 0 -12 4 -9 9 3 4 7 8 9 8 2 0 6 -4 9 -8z m347
-9 c13 -16 12 -17 -3 -4 -10 7 -18 15 -18 17 0 8 8 3 21 -13z m-3858 -28 c-3
-9 -8 -14 -10 -11 -3 3 -2 9 2 15 9 16 15 13 8 -4z m3507 11 c0 -2 -8 -10 -17
-17 -16 -13 -17 -12 -4 4 13 16 21 21 21 13z m114 -26 c-6 -6 -10 -3 -10 10 0
13 4 16 10 10 7 -7 7 -13 0 -20z m-4100 4 c3 -8 2 -12 -4 -9 -6 3 -10 10 -10
16 0 14 7 11 14 -7z m3901 7 c3 -5 2 -12 -3 -15 -5 -3 -9 1 -9 9 0 17 3 19 12
6z m239 -7 c3 -8 2 -12 -4 -9 -6 3 -10 10 -10 16 0 14 7 11 14 -7z m-269 -34
c-3 -5 -12 -10 -18 -10 -7 0 -6 4 3 10 19 12 23 12 15 0z m-5 -24 c0 -2 -8
-10 -17 -17 -16 -13 -17 -12 -4 4 13 16 21 21 21 13z m-3289 -23 c13 -16 12
-17 -3 -4 -17 13 -22 21 -14 21 2 0 10 -8 17 -17z m3213 9 c2 -4 -4 -8 -14 -8
-10 0 -16 4 -14 8 3 4 9 8 14 8 5 0 11 -4 14 -8z m500 0 c3 -5 -1 -9 -9 -9 -8
0 -12 4 -9 9 3 4 7 8 9 8 2 0 6 -4 9 -8z m-4086 -47 c-3 -3 -9 2 -12 12 -6 14
-5 15 5 6 7 -7 10 -15 7 -18z m102 21 c0 -2 -8 -10 -17 -17 -16 -13 -17 -12
-4 4 13 16 21 21 21 13z m121 -13 c13 -16 12 -17 -3 -4 -17 13 -22 21 -14 21
2 0 10 -8 17 -17z m240 0 c13 -16 12 -17 -3 -4 -17 13 -22 21 -14 21 2 0 10
-8 17 -17z m3315 -9 c1 -9 0 -13 -4 -10 -3 4 -7 14 -8 22 -1 9 0 13 4 10 3 -4
7 -14 8 -22z m44 22 c0 -2 -8 -10 -17 -17 -16 -13 -17 -12 -4 4 13 16 21 21
21 13z m-169 -23 c13 -16 12 -17 -3 -4 -10 7 -18 15 -18 17 0 8 8 3 21 -13z
m320 0 c13 -16 12 -17 -3 -4 -10 7 -18 15 -18 17 0 8 8 3 21 -13z m-3501 -27
c0 -2 -8 -10 -17 -17 -16 -13 -17 -12 -4 4 13 16 21 21 21 13z m3024 -4 c3 -5
-1 -9 -9 -9 -8 0 -12 4 -9 9 3 4 7 8 9 8 2 0 6 -4 9 -8z m160 0 c3 -5 -1 -9
-9 -9 -8 0 -12 4 -9 9 3 4 7 8 9 8 2 0 6 -4 9 -8z m-3354 -16 c0 -2 -7 -7 -16
-10 -8 -3 -12 -2 -9 4 6 10 25 14 25 6z m-200 -10 c0 -2 -8 -10 -17 -17 -16
-13 -17 -12 -4 4 13 16 21 21 21 13z m240 -20 c-7 -7 -13 -7 -20 0 -6 6 -3 10
10 10 13 0 16 -4 10 -10z m3010 8 c0 -8 -19 -13 -24 -6 -3 5 1 9 9 9 8 0 15
-2 15 -3z m-9 -41 c13 -16 12 -17 -3 -4 -10 7 -18 15 -18 17 0 8 8 3 21 -13z
m80 0 c13 -16 12 -17 -3 -4 -10 7 -18 15 -18 17 0 8 8 3 21 -13z m-3081 3 c0
-2 -7 -7 -16 -10 -8 -3 -12 -2 -9 4 6 10 25 14 25 6z m2930 0 c0 -2 -8 -10
-17 -17 -16 -13 -17 -12 -4 4 13 16 21 21 21 13z m-2490 -30 c0 -2 -8 -10 -17
-17 -16 -13 -17 -12 -4 4 13 16 21 21 21 13z m71 -23 c13 -16 12 -17 -3 -4
-10 7 -18 15 -18 17 0 8 8 3 21 -13z m-467 -31 c3 -5 -1 -9 -9 -9 -8 0 -12 4
-9 9 3 4 7 8 9 8 2 0 6 -4 9 -8z m3206 2 c0 -8 -19 -13 -24 -6 -3 5 1 9 9 9 8
0 15 -2 15 -3z m-2859 -31 c13 -16 12 -17 -3 -4 -17 13 -22 21 -14 21 2 0 10
-8 17 -17z m-351 3 c0 -2 -8 -10 -17 -17 -16 -13 -17 -12 -4 4 13 16 21 21 21
13z m3076 -22 c1 -9 0 -13 -4 -10 -3 4 -7 14 -8 22 -1 9 0 13 4 10 3 -4 7 -14
8 -22z m125 9 c13 -16 12 -17 -3 -4 -17 13 -22 21 -14 21 2 0 10 -8 17 -17z
m-2926 -2 c3 -5 2 -12 -3 -15 -5 -3 -9 1 -9 9 0 17 3 19 12 6z m36 -8 c13 -16
12 -17 -3 -4 -17 13 -22 21 -14 21 2 0 10 -8 17 -17z m369 3 c-7 -7 -13 -7
-20 0 -6 6 -3 10 10 10 13 0 16 -4 10 -10z m2006 2 c3 -4 -1 -5 -10 -4 -8 1
-18 5 -22 8 -3 4 1 5 10 4 8 -1 18 -5 22 -8z m159 3 c-9 -8 -36 -10 -30 -2 2
4 11 8 20 8 8 0 13 -3 10 -6z m205 5 c0 -2 -8 -10 -17 -17 -16 -13 -17 -12 -4
4 13 16 21 21 21 13z m-2925 -26 c-3 -5 -12 -10 -18 -10 -7 0 -6 4 3 10 19 12
23 12 15 0z m3077 -14 c10 6 11 4 0 -7 -10 -11 -15 -10 -30 6 -15 17 -15 18 0
6 9 -7 23 -9 30 -5z m-2872 -2 c0 -8 -19 -13 -24 -6 -3 5 1 9 9 9 8 0 15 -2
15 -3z m474 -2 c3 -5 -1 -9 -9 -9 -8 0 -12 4 -9 9 3 4 7 8 9 8 2 0 6 -4 9 -8z
m66 2 c0 -8 -19 -13 -24 -6 -3 5 1 9 9 9 8 0 15 -2 15 -3z m1694 -2 c3 -5 -1
-9 -9 -9 -8 0 -12 4 -9 9 3 4 7 8 9 8 2 0 6 -4 9 -8z m-2031 -37 c-3 -9 -8
-14 -10 -11 -3 3 -2 9 2 15 9 16 15 13 8 -4z m222 6 c3 -5 2 -12 -3 -15 -5 -3
-9 1 -9 9 0 17 3 19 12 6z m45 5 c0 -2 -8 -10 -17 -17 -16 -13 -17 -12 -4 4
13 16 21 21 21 13z m1715 -5 c3 -5 2 -12 -3 -15 -5 -3 -9 1 -9 9 0 17 3 19 12
6z m-237 -56 c-3 -3 -9 2 -12 12 -6 14 -5 15 5 6 7 -7 10 -15 7 -18z m38 5 c0
-12 -4 -16 -9 -11 -5 5 -6 14 -3 20 10 15 12 14 12 -9z m-2085 -7 c13 -16 12
-17 -3 -4 -10 7 -18 15 -18 17 0 8 8 3 21 -13z m199 11 c0 -8 -19 -13 -24 -6
-3 5 1 9 9 9 8 0 15 -2 15 -3z m750 2 c0 -3 -4 -8 -10 -11 -5 -3 -10 -1 -10 4
0 6 5 11 10 11 6 0 10 -2 10 -4z m171 -19 c-10 -9 -11 -8 -5 6 3 10 9 15 12
12 3 -3 0 -11 -7 -18z m640 6 c13 -16 12 -17 -3 -4 -10 7 -18 15 -18 17 0 8 8
3 21 -13z m784 8 c3 -5 2 -12 -3 -15 -5 -3 -9 1 -9 9 0 17 3 19 12 6z m-2375
-25 c0 -2 -8 -10 -17 -17 -16 -13 -17 -12 -4 4 13 16 21 21 21 13z m1240 0 c0
-2 -8 -10 -17 -17 -16 -13 -17 -12 -4 4 13 16 21 21 21 13z m520 0 c0 -2 -8
-10 -17 -17 -16 -13 -17 -12 -4 4 13 16 21 21 21 13z m-1645 -15 c3 -5 2 -12
-3 -15 -5 -3 -9 1 -9 9 0 17 3 19 12 6z m356 -8 c13 -16 12 -17 -3 -4 -17 13
-22 21 -14 21 2 0 10 -8 17 -17z m80 0 c13 -16 12 -17 -3 -4 -17 13 -22 21
-14 21 2 0 10 -8 17 -17z m1169 11 c0 -8 -19 -13 -24 -6 -3 5 1 9 9 9 8 0 15
-2 15 -3z m511 -11 c13 -16 12 -17 -3 -4 -17 13 -22 21 -14 21 2 0 10 -8 17
-17z m179 13 c0 -2 -8 -10 -17 -17 -16 -13 -17 -12 -4 4 13 16 21 21 21 13z
m-1774 -52 c1 -9 0 -13 -4 -10 -3 4 -7 14 -8 22 -1 9 0 13 4 10 3 -4 7 -14 8
-22z m-26 12 c0 -2 -8 -10 -17 -17 -16 -13 -17 -12 -4 4 13 16 21 21 21 13z
m1530 -2 c0 -8 -19 -13 -24 -6 -3 5 1 9 9 9 8 0 15 -2 15 -3z m-2024 -44 c0
-12 -4 -16 -9 -11 -5 5 -6 14 -3 20 10 15 12 14 12 -9z m685 3 c13 -16 12 -17
-3 -4 -17 13 -22 21 -14 21 2 0 10 -8 17 -17z m399 13 c0 -2 -8 -10 -17 -17
-16 -13 -17 -12 -4 4 13 16 21 21 21 13z m241 -13 c13 -16 12 -17 -3 -4 -17
13 -22 21 -14 21 2 0 10 -8 17 -17z m480 0 c13 -16 12 -17 -3 -4 -17 13 -22
21 -14 21 2 0 10 -8 17 -17z m240 0 c13 -16 12 -17 -3 -4 -17 13 -22 21 -14
21 2 0 10 -8 17 -17z m35 2 c-1 -8 -5 -17 -8 -21 -5 -4 -4 16 1 34 3 9 9 -1 7
-13z m179 -5 c3 -5 1 -10 -4 -10 -6 0 -11 5 -11 10 0 6 2 10 4 10 3 0 8 -4 11
-10z m-1220 -19 c3 -5 2 -12 -3 -15 -5 -3 -9 1 -9 9 0 17 3 19 12 6z m740 -10
c3 -5 2 -12 -3 -15 -5 -3 -9 1 -9 9 0 17 3 19 12 6z m-959 -13 c4 -7 4 -10 -1
-6 -4 4 -15 2 -24 -5 -14 -11 -14 -10 -2 6 16 20 18 21 27 5z m1224 -2 c-7 -7
-13 -7 -20 0 -6 6 -3 10 10 10 13 0 16 -4 10 -10z m85 5 c-9 -8 -36 -10 -30
-2 2 4 11 8 20 8 8 0 13 -3 10 -6z m-1205 -15 c0 -2 -7 -7 -16 -10 -8 -3 -12
-2 -9 4 6 10 25 14 25 6z m-719 -23 c13 -16 12 -17 -3 -4 -17 13 -22 21 -14
21 2 0 10 -8 17 -17z m35 2 c-1 -8 -5 -17 -8 -21 -5 -4 -4 16 1 34 3 9 9 -1 7
-13z m124 11 c0 -2 -8 -10 -17 -17 -16 -13 -17 -12 -4 4 13 16 21 21 21 13z
m1201 -13 c13 -16 12 -17 -3 -4 -17 13 -22 21 -14 21 2 0 10 -8 17 -17z m159
13 c0 -2 -8 -10 -17 -17 -16 -13 -17 -12 -4 4 13 16 21 21 21 13z m-1160 -20
c-7 -7 -13 -7 -20 0 -6 6 -3 10 10 10 13 0 16 -4 10 -10z m1117 -1 c0 -8 -4
-12 -9 -9 -5 3 -6 10 -3 15 9 13 12 11 12 -6z m-544 -30 c-3 -9 -8 -14 -10
-11 -3 3 -2 9 2 15 9 16 15 13 8 -4z m-843 -1 c0 -8 -19 -13 -24 -6 -3 5 1 9
9 9 8 0 15 -2 15 -3z m474 -2 c3 -5 -1 -9 -9 -9 -8 0 -12 4 -9 9 3 4 7 8 9 8
2 0 6 -4 9 -8z m326 2 c0 -8 -19 -13 -24 -6 -3 5 1 9 9 9 8 0 15 -2 15 -3z
m547 -9 c0 -8 -4 -12 -9 -9 -5 3 -6 10 -3 15 9 13 12 11 12 -6z m-1037 -9 c0
-2 -7 -7 -16 -10 -8 -3 -12 -2 -9 4 6 10 25 14 25 6z m1085 -6 c3 -6 -1 -7 -9
-4 -18 7 -21 14 -7 14 6 0 13 -4 16 -10z m-970 -9 c3 -5 2 -12 -3 -15 -5 -3
-9 1 -9 9 0 17 3 19 12 6z m45 5 c0 -2 -8 -10 -17 -17 -16 -13 -17 -12 -4 4
13 16 21 21 21 13z m160 0 c0 -2 -8 -10 -17 -17 -16 -13 -17 -12 -4 4 13 16
21 21 21 13z m285 -15 c-9 -8 -36 -10 -30 -2 2 4 11 8 20 8 8 0 13 -3 10 -6z
m159 1 c2 -4 -4 -8 -14 -8 -10 0 -16 4 -14 8 3 4 9 8 14 8 5 0 11 -4 14 -8z
m107 -9 c13 -16 12 -17 -3 -4 -17 13 -22 21 -14 21 2 0 10 -8 17 -17z m-270
-30 c13 -16 12 -17 -3 -4 -10 7 -18 15 -18 17 0 8 8 3 21 -13z m99 -17 c0 -2
-7 -7 -16 -10 -8 -3 -12 -2 -9 4 6 10 25 14 25 6z"/>
</g>
</svg>
