<svg width="25" height="25" viewBox="0 0 25 25" fill="none" xmlns="http://www.w3.org/2000/svg">
<path d="M12.3471 24.2434C11.9799 24.2434 11.6127 24.1273 11.2961 23.8957C9.84633 22.8291 2.52152 17.2145 0.593306 11.3294C-0.394604 8.30995 -0.14227 5.43789 1.30151 3.24015C2.64114 1.22359 4.87524 0.0236034 7.28253 0.0236034C9.14944 0.0236034 10.9057 0.71323 12.359 1.99232C13.8146 0.712592 15.5976 0 17.4306 0C19.832 0 22.0661 1.20381 23.4063 3.21974C24.8572 5.42067 25.1101 8.29847 24.1198 11.3307C22.1345 17.4071 14.2782 23.2533 13.3891 23.9002C13.0749 24.1305 12.7113 24.2434 12.3471 24.2434ZM7.28312 4.00633C6.07561 4.00633 4.97225 4.58113 4.33368 5.54316C3.60465 6.65128 3.52014 8.24105 4.0992 10.0101C5.2347 13.4793 9.42796 17.485 12.3506 19.809C15.1703 17.5736 19.4725 13.5105 20.6151 10.0152C21.1966 8.23404 21.1115 6.63916 20.3783 5.52529C19.7379 4.56135 18.6346 3.98337 17.4318 3.98337C16.1791 3.98337 14.9454 4.63854 14.0467 5.78239L13.7771 6.12624C13.4224 6.57345 12.9041 6.83182 12.3578 6.83182C12.3554 6.83182 12.353 6.83182 12.3506 6.83182C11.8007 6.8299 11.2806 6.56643 10.9289 6.11412L10.6664 5.77473C9.75706 4.62195 8.58347 4.00633 7.28312 4.00633Z" fill="#541594"/>
</svg>
