<svg width="250" height="40" viewBox="0 0 250 40" fill="none" xmlns="http://www.w3.org/2000/svg">
<path d="M100.574 11.5215V32H95.916V11.5215H100.574ZM109.328 20.0996V23.7559H99.2734V20.0996H109.328ZM110.365 11.5215V15.1953H99.2734V11.5215H110.365ZM112.159 11.5215H120.473C121.727 11.5215 122.858 11.6563 123.866 11.9258C124.885 12.1836 125.747 12.5762 126.45 13.1035C127.165 13.6191 127.71 14.2637 128.085 15.0371C128.46 15.7988 128.647 16.6836 128.647 17.6914C128.647 18.8398 128.448 19.8125 128.05 20.6094C127.651 21.4062 127.094 22.0625 126.38 22.5781C125.665 23.082 124.827 23.498 123.866 23.8262L122.354 24.6875H115.165L115.13 21.0137H120.526C121.288 21.0137 121.926 20.8965 122.442 20.6621C122.958 20.4277 123.344 20.0938 123.602 19.6602C123.86 19.2266 123.989 18.7168 123.989 18.1309C123.989 17.5215 123.854 17 123.585 16.5664C123.327 16.1211 122.934 15.7812 122.407 15.5469C121.891 15.3125 121.247 15.1953 120.473 15.1953H116.835V32H112.159V11.5215ZM124.446 32L119.454 22.9473L124.376 22.9121L129.456 31.7891V32H124.446ZM149.583 21.3125V22.2266C149.583 23.7852 149.355 25.1855 148.898 26.4277C148.453 27.6582 147.814 28.7129 146.982 29.5918C146.15 30.459 145.16 31.127 144.011 31.5957C142.863 32.0527 141.591 32.2812 140.197 32.2812C138.802 32.2812 137.531 32.0527 136.382 31.5957C135.234 31.127 134.238 30.459 133.394 29.5918C132.55 28.7129 131.9 27.6582 131.443 26.4277C130.986 25.1855 130.757 23.7852 130.757 22.2266V21.3125C130.757 19.7539 130.986 18.3594 131.443 17.1289C131.9 15.8867 132.544 14.8262 133.376 13.9473C134.208 13.0684 135.199 12.4004 136.347 11.9434C137.496 11.4746 138.767 11.2402 140.162 11.2402C141.556 11.2402 142.828 11.4746 143.976 11.9434C145.124 12.4004 146.115 13.0684 146.947 13.9473C147.79 14.8262 148.441 15.8867 148.898 17.1289C149.355 18.3594 149.583 19.7539 149.583 21.3125ZM144.925 22.2266V21.2773C144.925 20.2578 144.814 19.3555 144.591 18.5703C144.38 17.7734 144.07 17.1055 143.66 16.5664C143.261 16.0273 142.763 15.6172 142.165 15.3359C141.58 15.043 140.912 14.8965 140.162 14.8965C139.412 14.8965 138.738 15.043 138.14 15.3359C137.554 15.6172 137.056 16.0273 136.646 16.5664C136.248 17.1055 135.943 17.7734 135.732 18.5703C135.521 19.3555 135.415 20.2578 135.415 21.2773V22.2266C135.415 23.2461 135.521 24.1543 135.732 24.9512C135.943 25.7363 136.253 26.4043 136.664 26.9551C137.085 27.5059 137.589 27.9277 138.175 28.2207C138.773 28.502 139.447 28.6426 140.197 28.6426C140.947 28.6426 141.615 28.502 142.201 28.2207C142.787 27.9277 143.279 27.5059 143.677 26.9551C144.087 26.4043 144.398 25.7363 144.609 24.9512C144.82 24.1543 144.925 23.2461 144.925 22.2266ZM170.028 11.5215V32H165.369L156.703 18.4121V32H152.045V11.5215H156.703L165.369 25.1094V11.5215H170.028ZM183.141 11.5215V32H178.483V11.5215H183.141ZM189.891 11.5215V15.1953H171.856V11.5215H189.891ZM206.574 28.3438V32H194.832V28.3438H206.574ZM196.396 11.5215V32H191.738V11.5215H196.396ZM205.062 19.5898V23.2461H194.832V19.5898H205.062ZM206.574 11.5215V15.1953H194.832V11.5215H206.574ZM208.403 11.5215H216.717C217.971 11.5215 219.102 11.6563 220.11 11.9258C221.129 12.1836 221.991 12.5762 222.694 13.1035C223.409 13.6191 223.953 14.2637 224.328 15.0371C224.703 15.7988 224.891 16.6836 224.891 17.6914C224.891 18.8398 224.692 19.8125 224.293 20.6094C223.895 21.4062 223.338 22.0625 222.623 22.5781C221.909 23.082 221.071 23.498 220.11 23.8262L218.598 24.6875H211.409L211.373 21.0137H216.77C217.532 21.0137 218.17 20.8965 218.686 20.6621C219.201 20.4277 219.588 20.0938 219.846 19.6602C220.104 19.2266 220.233 18.7168 220.233 18.1309C220.233 17.5215 220.098 17 219.828 16.5664C219.571 16.1211 219.178 15.7812 218.651 15.5469C218.135 15.3125 217.491 15.1953 216.717 15.1953H213.078V32H208.403V11.5215ZM220.69 32L215.698 22.9473L220.619 22.9121L225.7 31.7891V32H220.69ZM236.317 16.2852L230.517 32H225.806L233.98 11.5215H237.144L236.317 16.2852ZM241.837 32L235.966 16.2676L235.14 11.5215H238.339L246.53 32H241.837ZM241.644 24.3887V27.7812H230.13V24.3887H241.644Z" fill="#541594"/>
<path d="M57.6681 35.1075C57.4506 35.1075 57.2286 35.0748 57.0088 35.0046C55.7782 34.6171 55.0728 33.2303 55.4378 31.913L62.9176 4.78569C63.2811 3.46832 64.5714 2.71076 65.805 3.10389C67.0363 3.49304 67.741 4.8782 67.3768 6.19556L59.8969 33.322C59.5982 34.4066 58.673 35.1075 57.6681 35.1075Z" fill="#541594"/>
<path d="M39.8983 38.0001C39.4387 38.0001 38.9791 37.8549 38.5828 37.5655C36.7682 36.2322 27.5996 29.2139 25.186 21.8575C23.9494 18.0832 24.2653 14.4932 26.0725 11.746C27.7493 9.22529 30.5458 7.72531 33.559 7.72531C35.8958 7.72531 38.0941 8.58734 39.9132 10.1862C41.7353 8.58654 43.9671 7.6958 46.2615 7.6958C49.2673 7.6958 52.0638 9.20057 53.7414 11.7205C55.5575 14.4716 55.8741 18.0689 54.6345 21.8591C52.1494 29.4547 42.3156 36.7624 41.2027 37.5711C40.8094 37.8589 40.3542 38.0001 39.8983 38.0001ZM33.5598 12.7037C32.0483 12.7037 30.6672 13.4222 29.8679 14.6247C28.9553 16.0099 28.8496 17.9971 29.5744 20.2084C30.9957 24.5449 36.2445 29.552 39.9028 32.4571C43.4323 29.6628 48.8174 24.584 50.2476 20.2148C50.9754 17.9883 50.8689 15.9947 49.9512 14.6024C49.1496 13.3975 47.7685 12.675 46.263 12.675C44.6949 12.675 43.1507 13.494 42.0259 14.9238L41.6884 15.3536C41.2444 15.9126 40.5956 16.2356 39.9118 16.2356C39.9088 16.2356 39.9058 16.2356 39.9028 16.2356C39.2145 16.2332 38.5634 15.9038 38.1232 15.3385L37.7947 14.9142C36.6564 13.4732 35.1874 12.7037 33.5598 12.7037Z" fill="#541594"/>
<path d="M20.0951 34.9635C19.5 34.9635 18.9048 34.7187 18.4511 34.233L9.68105 24.8424C8.77298 23.8703 8.77298 22.2946 9.68105 21.3233L18.4526 11.9342C19.3606 10.9614 20.8326 10.9614 21.7399 11.9342C22.6488 12.9055 22.6488 14.4821 21.7399 15.4533L14.6132 23.084L21.7392 30.7139C22.6473 31.6844 22.6473 33.2618 21.7392 34.2322C21.2855 34.7187 20.6903 34.9635 20.0951 34.9635Z" fill="#541594"/>
<path d="M70.9035 34.964C70.3083 34.964 69.7131 34.7191 69.2594 34.2335C68.3514 33.2614 68.3514 31.6857 69.2594 30.7152L76.3869 23.0853L69.2594 15.4546C68.3528 14.4833 68.3528 12.9068 69.2594 11.9347C70.169 10.9634 71.6395 10.9626 72.5475 11.9355L81.3176 21.3246C82.2271 22.2958 82.2271 23.8716 81.3176 24.8437L72.5475 34.2335C72.0931 34.7191 71.4964 34.964 70.9035 34.964Z" fill="#541594"/>
</svg>
