<svg width="90" height="11" viewBox="0 0 90 11" fill="none" xmlns="http://www.w3.org/2000/svg">
<path d="M0.854256 5.5L5.20405 9.89032C5.34223 10.0298 5.34223 10.2559 5.20405 10.3954C5.06586 10.5349 4.84183 10.5349 4.70364 10.3954L0.103639 5.75254C-0.0345464 5.61307 -0.0345464 5.38693 0.103639 5.24746L4.70364 0.604605C4.84183 0.465132 5.06586 0.465132 5.20405 0.604605C5.34223 0.744078 5.34223 0.970209 5.20405 1.10968L0.854256 5.5ZM11.3231 6.92857C10.5414 6.92857 9.90769 6.28898 9.90769 5.5C9.90769 4.71102 10.5414 4.07143 11.3231 4.07143C12.1048 4.07143 12.7385 4.71102 12.7385 5.5C12.7385 6.28898 12.1048 6.92857 11.3231 6.92857ZM11.3231 6.21429C11.7139 6.21429 12.0308 5.89449 12.0308 5.5C12.0308 5.10551 11.7139 4.78571 11.3231 4.78571C10.9322 4.78571 10.6154 5.10551 10.6154 5.5C10.6154 5.89449 10.9322 6.21429 11.3231 6.21429ZM15.5692 6.92857C14.7875 6.92857 14.1538 6.28898 14.1538 5.5C14.1538 4.71102 14.7875 4.07143 15.5692 4.07143C16.3509 4.07143 16.9846 4.71102 16.9846 5.5C16.9846 6.28898 16.3509 6.92857 15.5692 6.92857ZM15.5692 6.21429C15.9601 6.21429 16.2769 5.89449 16.2769 5.5C16.2769 5.10551 15.9601 4.78571 15.5692 4.78571C15.1784 4.78571 14.8615 5.10551 14.8615 5.5C14.8615 5.89449 15.1784 6.21429 15.5692 6.21429ZM7.07692 6.92857C6.29523 6.92857 5.66154 6.28898 5.66154 5.5C5.66154 4.71102 6.29523 4.07143 7.07692 4.07143C7.85862 4.07143 8.49231 4.71102 8.49231 5.5C8.49231 6.28898 7.85862 6.92857 7.07692 6.92857ZM7.07692 6.21429C7.46777 6.21429 7.78461 5.89449 7.78461 5.5C7.78461 5.10551 7.46777 4.78571 7.07692 4.78571C6.68607 4.78571 6.36923 5.10551 6.36923 5.5C6.36923 5.89449 6.68607 6.21429 7.07692 6.21429ZM22.1457 5.5L17.796 1.10968C17.6578 0.970209 17.6578 0.744078 17.796 0.604605C17.9341 0.465132 18.1582 0.465132 18.2964 0.604605L22.8964 5.24746C23.0345 5.38693 23.0345 5.61307 22.8964 5.75254L18.2964 10.3954C18.1582 10.5349 17.9341 10.5349 17.796 10.3954C17.6578 10.2559 17.6578 10.0298 17.796 9.89032L22.1457 5.5Z" fill="#2D2B5C"/>
<path d="M28.9922 0.998535V10.1001H28.1797V0.998535H28.9922ZM32.9531 5.15479V5.90479H28.7344V5.15479H32.9531ZM33.5312 0.998535V1.75635H28.7344V0.998535H33.5312ZM35.1875 0.998535H38.0312C38.4844 0.998535 38.8906 1.06104 39.25 1.18604C39.6094 1.30583 39.9167 1.48291 40.1719 1.71729C40.4323 1.94645 40.6302 2.23291 40.7656 2.57666C40.901 2.9152 40.9688 3.30322 40.9688 3.74072C40.9688 4.18343 40.8828 4.57926 40.7109 4.92822C40.5443 5.27718 40.3125 5.56885 40.0156 5.80322C39.7188 6.03239 39.3724 6.19645 38.9766 6.29541L38.6953 6.42041H35.7266L35.7109 5.67041H38.1875C38.625 5.67041 38.987 5.58187 39.2734 5.40479C39.5651 5.2277 39.7839 4.99333 39.9297 4.70166C40.0807 4.40999 40.1562 4.09749 40.1562 3.76416C40.1562 3.36312 40.0729 3.01156 39.9062 2.70947C39.7448 2.40739 39.5052 2.17301 39.1875 2.00635C38.875 1.83968 38.4896 1.75635 38.0312 1.75635H36.0156V10.1001H35.1875V0.998535ZM40.4688 10.1001L38.2656 6.1001L39.1328 6.08447L41.3281 10.022V10.1001H40.4688ZM49.5703 5.08447V6.02197C49.5703 6.65739 49.4922 7.23551 49.3359 7.75635C49.1797 8.27718 48.9531 8.71989 48.6562 9.08447C48.3594 9.44906 48.0026 9.73031 47.5859 9.92822C47.1745 10.1261 46.7135 10.2251 46.2031 10.2251C45.6979 10.2251 45.237 10.1261 44.8203 9.92822C44.4089 9.73031 44.0547 9.44906 43.7578 9.08447C43.4609 8.71989 43.2292 8.27718 43.0625 7.75635C42.901 7.23551 42.8203 6.65739 42.8203 6.02197V5.08447C42.8203 4.44385 42.901 3.86572 43.0625 3.3501C43.224 2.82926 43.4531 2.38395 43.75 2.01416C44.0469 1.64437 44.401 1.36312 44.8125 1.17041C45.2292 0.972493 45.6901 0.873535 46.1953 0.873535C46.7057 0.873535 47.1693 0.972493 47.5859 1.17041C48.0026 1.36312 48.3568 1.64437 48.6484 2.01416C48.9453 2.38395 49.1719 2.82926 49.3281 3.3501C49.4896 3.86572 49.5703 4.44385 49.5703 5.08447ZM48.7656 6.02197V5.06885C48.7656 4.54281 48.7083 4.06885 48.5938 3.64697C48.4792 3.2251 48.3099 2.86572 48.0859 2.56885C47.8672 2.27197 47.5964 2.04281 47.2734 1.88135C46.9557 1.71989 46.5964 1.63916 46.1953 1.63916C45.7995 1.63916 45.4427 1.71989 45.125 1.88135C44.8073 2.0376 44.5365 2.26676 44.3125 2.56885C44.0938 2.86572 43.9245 3.2251 43.8047 3.64697C43.6901 4.06885 43.6328 4.54281 43.6328 5.06885V6.02197C43.6328 6.54801 43.6901 7.02458 43.8047 7.45166C43.9245 7.87354 44.0964 8.23551 44.3203 8.5376C44.5443 8.83447 44.8125 9.06364 45.125 9.2251C45.4427 9.38656 45.8021 9.46729 46.2031 9.46729C46.6094 9.46729 46.9714 9.38656 47.2891 9.2251C47.6068 9.06364 47.875 8.83447 48.0938 8.5376C48.3125 8.23551 48.4792 7.87354 48.5938 7.45166C48.7083 7.02458 48.7656 6.54801 48.7656 6.02197ZM58.0547 0.998535V10.1001H57.2422L52.4141 2.37354V10.1001H51.6016V0.998535H52.4141L57.2422 8.71729V0.998535H58.0547ZM63.3828 0.998535V10.1001H62.5781V0.998535H63.3828ZM66.3125 0.998535V1.75635H59.6562V0.998535H66.3125ZM73.2969 9.3501V10.1001H68.4688V9.3501H73.2969ZM68.7266 0.998535V10.1001H67.9141V0.998535H68.7266ZM72.6953 5.00635V5.75635H68.4688V5.00635H72.6953ZM73.2734 0.998535V1.75635H68.4688V0.998535H73.2734ZM75 0.998535H77.8438C78.2969 0.998535 78.7031 1.06104 79.0625 1.18604C79.4219 1.30583 79.7292 1.48291 79.9844 1.71729C80.2448 1.94645 80.4427 2.23291 80.5781 2.57666C80.7135 2.9152 80.7812 3.30322 80.7812 3.74072C80.7812 4.18343 80.6953 4.57926 80.5234 4.92822C80.3568 5.27718 80.125 5.56885 79.8281 5.80322C79.5312 6.03239 79.1849 6.19645 78.7891 6.29541L78.5078 6.42041H75.5391L75.5234 5.67041H78C78.4375 5.67041 78.7995 5.58187 79.0859 5.40479C79.3776 5.2277 79.5964 4.99333 79.7422 4.70166C79.8932 4.40999 79.9688 4.09749 79.9688 3.76416C79.9688 3.36312 79.8854 3.01156 79.7188 2.70947C79.5573 2.40739 79.3177 2.17301 79 2.00635C78.6875 1.83968 78.3021 1.75635 77.8438 1.75635H75.8281V10.1001H75V0.998535ZM80.2812 10.1001L78.0781 6.1001L78.9453 6.08447L81.1406 10.022V10.1001H80.2812ZM85.7266 2.06104L82.9219 10.1001H82.0781L85.3281 0.998535H85.9141L85.7266 2.06104ZM88.5078 10.1001L85.7188 2.04541L85.5312 0.998535H86.1172L89.3438 10.1001H88.5078ZM87.9766 6.88916V7.63916H83.4531V6.88916H87.9766Z" fill="#2D2B5C"/>
</svg>
