<svg width="25" height="25" viewBox="0 0 25 25" fill="none" xmlns="http://www.w3.org/2000/svg">
<path d="M22.6146 21.1354L18.75 17.3021C20.2501 15.4317 20.9766 13.0576 20.78 10.668C20.5835 8.27843 19.4788 6.05497 17.6933 4.45483C15.9077 2.85469 13.5769 1.99948 11.1802 2.06507C8.7834 2.13065 6.50286 3.11204 4.80746 4.80743C3.11207 6.50283 2.13068 8.78337 2.0651 11.1801C1.99951 13.5769 2.85472 15.9077 4.45486 17.6932C6.055 19.4788 8.27846 20.5835 10.668 20.78C13.0576 20.9766 15.4317 20.2501 17.3021 18.75L21.1354 22.5833C21.2323 22.681 21.3475 22.7585 21.4744 22.8113C21.6014 22.8642 21.7375 22.8914 21.875 22.8914C22.0125 22.8914 22.1487 22.8642 22.2756 22.8113C22.4026 22.7585 22.5178 22.681 22.6146 22.5833C22.8024 22.3891 22.9073 22.1295 22.9073 21.8594C22.9073 21.5892 22.8024 21.3296 22.6146 21.1354ZM11.4584 18.75C10.0162 18.75 8.60643 18.3223 7.40732 17.5211C6.20821 16.7199 5.27362 15.5811 4.72173 14.2487C4.16985 12.9163 4.02545 11.4502 4.3068 10.0358C4.58815 8.62135 5.28261 7.3221 6.30237 6.30234C7.32213 5.28258 8.62138 4.58812 10.0358 4.30677C11.4503 4.02542 12.9164 4.16981 14.2488 4.7217C15.5811 5.27359 16.7199 6.20818 17.5212 7.40729C18.3224 8.6064 18.75 10.0162 18.75 11.4583C18.75 13.3922 17.9818 15.2469 16.6143 16.6143C15.2469 17.9818 13.3922 18.75 11.4584 18.75Z" fill="#541594"/>
</svg>
