<svg width="26" height="26" viewBox="0 0 26 26" fill="none" xmlns="http://www.w3.org/2000/svg">
<path d="M3.25 5.41671C3.25 4.8184 3.73502 4.33337 4.33333 4.33337H21.6667C22.265 4.33337 22.75 4.8184 22.75 5.41671V5.41671C22.75 6.01502 22.265 6.50004 21.6667 6.50004H4.33333C3.73503 6.50004 3.25 6.01502 3.25 5.41671V5.41671ZM3.25 13C3.25 12.4017 3.73502 11.9167 4.33333 11.9167H21.6667C22.265 11.9167 22.75 12.4017 22.75 13V13C22.75 13.5983 22.265 14.0834 21.6667 14.0834H4.33333C3.73503 14.0834 3.25 13.5983 3.25 13V13ZM3.25 20.5834C3.25 19.9851 3.73502 19.5 4.33333 19.5H21.6667C22.265 19.5 22.75 19.9851 22.75 20.5834V20.5834C22.75 21.1817 22.265 21.6667 21.6667 21.6667H4.33333C3.73503 21.6667 3.25 21.1817 3.25 20.5834V20.5834Z" fill="#541594"/>
</svg>
