<svg width="26" height="26" viewBox="0 0 26 26" fill="none" xmlns="http://www.w3.org/2000/svg">
<path d="M25.1769 22.954L20.5422 18.3532C22.3412 16.1084 23.2125 13.259 22.9767 10.391C22.741 7.52307 21.4162 4.85448 19.2748 2.93399C17.1334 1.0135 14.3381 -0.0129146 11.4637 0.0657989C8.58934 0.144512 5.85432 1.32237 3.82105 3.35718C1.78778 5.39199 0.610819 8.12909 0.532165 11.0057C0.453512 13.8823 1.47915 16.6797 3.39818 18.8227C5.31721 20.9657 7.98377 22.2915 10.8496 22.5274C13.7154 22.7633 16.5626 21.8914 18.8057 20.091L23.403 24.6918C23.5191 24.809 23.6573 24.902 23.8095 24.9654C23.9618 25.0289 24.125 25.0616 24.29 25.0616C24.4549 25.0616 24.6182 25.0289 24.7704 24.9654C24.9226 24.902 25.0608 24.809 25.1769 24.6918C25.4021 24.4587 25.528 24.1471 25.528 23.8229C25.528 23.4987 25.4021 23.1871 25.1769 22.954V22.954ZM11.7974 20.091C10.0678 20.091 8.3771 19.5778 6.93903 18.6161C5.50095 17.6545 4.38011 16.2877 3.71824 14.6886C3.05636 13.0895 2.88319 11.3299 3.22061 9.63225C3.55803 7.93464 4.39089 6.37528 5.61387 5.15137C6.83685 3.92745 8.39503 3.09396 10.0914 2.75628C11.7877 2.41861 13.546 2.59191 15.1439 3.25429C16.7418 3.91667 18.1075 5.03836 19.0684 6.47753C20.0293 7.9167 20.5422 9.6087 20.5422 11.3396C20.5422 13.6606 19.6209 15.8866 17.9809 17.5278C16.3409 19.169 14.1166 20.091 11.7974 20.091V20.091Z" fill="#541594"/>
</svg>
