<svg width="25" height="25" viewBox="0 0 25 25" fill="none" xmlns="http://www.w3.org/2000/svg">
<rect width="25" height="25" rx="4" fill="#541594"/>
<path d="M14.4323 12.8698C14.9429 12.468 15.3156 11.9171 15.4986 11.2937C15.6815 10.6703 15.6656 10.0053 15.453 9.39137C15.2405 8.77742 14.8418 8.24498 14.3126 7.86814C13.7833 7.4913 13.1497 7.28879 12.5 7.28879C11.8503 7.28879 11.2168 7.4913 10.6875 7.86814C10.1582 8.24498 9.75958 8.77742 9.54701 9.39137C9.33445 10.0053 9.31852 10.6703 9.50147 11.2937C9.68441 11.9171 10.0571 12.468 10.5677 12.8698C9.69278 13.2203 8.92935 13.8017 8.35883 14.552C7.78831 15.3023 7.43209 16.1934 7.32815 17.1302C7.32063 17.1986 7.32665 17.2678 7.34588 17.3339C7.3651 17.3999 7.39715 17.4616 7.44019 17.5153C7.52712 17.6237 7.65356 17.6931 7.7917 17.7083C7.92983 17.7235 8.06834 17.6832 8.17676 17.5963C8.28518 17.5093 8.35463 17.3829 8.36982 17.2448C8.48419 16.2266 8.96966 15.2863 9.73348 14.6035C10.4973 13.9207 11.4859 13.5432 12.5104 13.5432C13.535 13.5432 14.5236 13.9207 15.2874 14.6035C16.0512 15.2863 16.5367 16.2266 16.6511 17.2448C16.6652 17.3728 16.7263 17.491 16.8225 17.5766C16.9187 17.6622 17.0431 17.7091 17.1719 17.7083H17.2292C17.3657 17.6926 17.4905 17.6236 17.5764 17.5163C17.6622 17.4089 17.7022 17.272 17.6875 17.1354C17.5831 16.1959 17.225 15.3026 16.6515 14.5511C16.0781 13.7997 15.3109 13.2185 14.4323 12.8698ZM12.5 12.5C12.088 12.5 11.6852 12.3778 11.3426 12.1489C11 11.92 10.733 11.5946 10.5753 11.2139C10.4176 10.8332 10.3763 10.4143 10.4567 10.0102C10.5371 9.60609 10.7355 9.23487 11.0269 8.94351C11.3182 8.65215 11.6895 8.45373 12.0936 8.37335C12.4977 8.29296 12.9166 8.33422 13.2973 8.4919C13.678 8.64958 14.0033 8.91661 14.2323 9.25921C14.4612 9.60181 14.5834 10.0046 14.5834 10.4167C14.5834 10.9692 14.3639 11.4991 13.9732 11.8898C13.5825 12.2805 13.0526 12.5 12.5 12.5Z" fill="white"/>
</svg>
